<svg width="54" height="54" viewBox="0 0 54 54" fill="none" xmlns="http://www.w3.org/2000/svg">
<path d="M32.9403 2.69999C32.9403 2.69999 28.0803 0.93202 22.9963 1.82838C15.9304 3.07416 13.0041 7.79732 11.353 10.241C9.33006 13.235 8.41295 16.8652 7.98431 20.6044L3.61368 28.1348C3.61012 28.1404 3.6066 28.146 3.60314 28.1517C2.85833 29.492 3.33497 31.2395 4.68524 31.9908C4.69915 31.9981 4.71322 32.0051 4.72743 32.0119L8.01384 33.6551L9.07064 40.964C9.0713 40.969 9.07201 40.9739 9.07274 40.9788C9.30504 42.4308 10.059 43.7757 11.1167 44.7883C12.1744 45.801 13.5793 46.5019 15.1224 46.44H18.3603V49.68V50.76H19.2589C19.3755 50.7793 19.4946 50.7793 19.6112 50.76H20.5203V48.6V45.36C20.5203 45.0736 20.4065 44.7989 20.204 44.5963C20.0014 44.3938 19.7267 44.28 19.4403 44.28H15.0802C15.0655 44.2797 15.0507 44.2797 15.0359 44.28C14.2096 44.3131 13.3353 43.9238 12.6102 43.2295C11.885 42.5352 11.3521 41.5567 11.2053 40.6392L10.0705 32.7881C10.0456 32.6154 9.97923 32.4514 9.87711 32.31C9.77499 32.1685 9.64013 32.0539 9.48407 31.976L5.73571 30.1029C5.38175 29.9059 5.2897 29.5683 5.49314 29.2022L9.93759 21.543C10.0133 21.4123 10.0607 21.2671 10.0768 21.1169C10.4683 17.4766 11.3579 14.0929 13.1438 11.4497C14.569 9.34037 17.0104 5.22103 23.7603 3.77998C28.0803 2.85772 32.7662 5.21132 33.623 5.03158C33.8912 4.97936 34.1297 4.82741 34.2903 4.60634C34.451 4.38527 34.5219 4.11152 34.4887 3.84026C34.4555 3.569 34.3208 3.3204 34.1116 3.14456C33.9024 2.96872 33.3293 2.7773 32.9403 2.69999ZM41.7385 29.1473C41.545 29.1458 41.3546 29.1962 41.1872 29.2934C41.0199 29.3907 40.8817 29.5311 40.7872 29.7C39.2681 32.3333 37.8003 38.07 37.8003 43.8412V48.6V49.68V50.76H38.6989C38.8155 50.7793 38.9345 50.7793 39.0512 50.76H39.9603V49.68V48.6V43.8412C39.9603 38.88 41.3002 33.1341 42.6582 30.78C42.7555 30.6166 42.8079 30.4305 42.8102 30.2404C42.8125 30.0503 42.7645 29.8629 42.6712 29.6973C42.5779 29.5316 42.4425 29.3936 42.2788 29.297C42.115 29.2004 41.9286 29.1488 41.7385 29.1473Z" fill="black"/>
<path d="M40.4824 2.16014C40.1826 2.16483 39.8968 2.28834 39.688 2.50355C39.4791 2.71876 39.3642 3.00807 39.3685 3.30793V12.9087H29.7678C29.6179 12.9065 29.469 12.9342 29.3298 12.9901C29.1907 13.0461 29.064 13.1291 28.9573 13.2344C28.8505 13.3397 28.7657 13.4651 28.7078 13.6035C28.6499 13.7418 28.6201 13.8903 28.6201 14.0402C28.6201 14.1902 28.6499 14.3387 28.7078 14.477C28.7657 14.6154 28.8505 14.7408 28.9573 14.8461C29.064 14.9514 29.1907 15.0344 29.3298 15.0903C29.469 15.1462 29.6179 15.1739 29.7678 15.1718H39.3685V24.7725C39.3664 24.9225 39.3941 25.0714 39.45 25.2105C39.5059 25.3497 39.589 25.4763 39.6943 25.5831C39.7995 25.6899 39.925 25.7747 40.0633 25.8326C40.2017 25.8904 40.3502 25.9202 40.5001 25.9202C40.6501 25.9202 40.7985 25.8904 40.9369 25.8326C41.0752 25.7747 41.2007 25.6899 41.306 25.5831C41.4113 25.4763 41.4943 25.3497 41.5502 25.2105C41.6061 25.0714 41.6338 24.9225 41.6317 24.7725V15.1718H51.2324C51.3824 15.1739 51.5312 15.1462 51.6704 15.0903C51.8095 15.0344 51.9362 14.9514 52.043 14.8461C52.1498 14.7408 52.2346 14.6154 52.2924 14.477C52.3503 14.3387 52.3801 14.1902 52.3801 14.0402C52.3801 13.8903 52.3503 13.7418 52.2924 13.6035C52.2346 13.4651 52.1498 13.3397 52.043 13.2344C51.9362 13.1291 51.8095 13.0461 51.6704 12.9901C51.5312 12.9342 51.3824 12.9065 51.2324 12.9087H41.6317V3.30793C41.6339 3.15648 41.6056 3.00613 41.5486 2.86579C41.4916 2.72546 41.407 2.59799 41.2998 2.49096C41.1927 2.38392 41.0651 2.29949 40.9247 2.24266C40.7843 2.18584 40.6339 2.15777 40.4824 2.16014Z" fill="black"/>
</svg>
