<svg width="54" height="54" viewBox="0 0 54 54" fill="none" xmlns="http://www.w3.org/2000/svg">
<g clip-path="url(#clip0_3437_27344)">
<path d="M3.03797 0C1.38 0 0.00046875 1.37953 0.00046875 3.0375V8.4375C-0.00796875 8.505 -0.00796875 8.5725 0.00046875 8.64V43.2C0.00046875 43.7948 0.485625 44.28 1.08047 44.28H29.1605C29.5486 44.2842 29.9114 44.0817 30.1097 43.7442C30.3038 43.4067 30.3038 42.9933 30.1097 42.6558C29.9114 42.3183 29.5486 42.1158 29.1605 42.12H2.16047V9.72H45.3605V29.16C45.3563 29.5481 45.5588 29.9109 45.8963 30.1092C46.2338 30.3033 46.6472 30.3033 46.9847 30.1092C47.3222 29.9109 47.5247 29.5481 47.5205 29.16V8.64C47.5289 8.5725 47.5289 8.505 47.5205 8.4375V3.0375C47.5205 1.37953 46.1409 0 44.483 0H3.03797ZM3.03797 2.16H44.483C44.985 2.16 45.3605 2.53547 45.3605 3.0375V7.56H2.16047V3.0375C2.16047 2.53547 2.53594 2.16 3.03797 2.16ZM7.56047 16.2V18.36H11.8805V16.2H7.56047ZM15.1205 16.2V18.36H39.9605V16.2H15.1205ZM7.56047 21.6V23.76H11.8805V21.6H7.56047ZM15.1205 21.6V23.76H39.9605V21.6H15.1205ZM7.56047 27V29.16H11.8805V27H7.56047ZM15.1205 27V29.16H39.9605V27H15.1205ZM7.56047 32.4V34.56H11.8805V32.4H7.56047ZM15.1205 32.4V34.56H32.4005V32.4H15.1205ZM43.2005 32.4C37.2478 32.4 32.4005 37.2473 32.4005 43.2C32.4005 49.1527 37.2478 54 43.2005 54C49.1531 54 54.0005 49.1527 54.0005 43.2C54.0005 37.2473 49.1531 32.4 43.2005 32.4ZM43.2005 34.56C47.9845 34.56 51.8405 38.4159 51.8405 43.2C51.8405 47.9841 47.9845 51.84 43.2005 51.84C38.4164 51.84 34.5605 47.9841 34.5605 43.2C34.5605 38.4159 38.4164 34.56 43.2005 34.56ZM42.1205 37.8V42.12H37.8005V44.28H42.1205V48.6H44.2805V44.28H48.6005V42.12H44.2805V37.8H42.1205Z" fill="black"/>
</g>
<defs>
<clipPath id="clip0_3437_27344">
<rect width="54" height="54" fill="white"/>
</clipPath>
</defs>
</svg>
