<svg width="54" height="54" viewBox="0 0 54 54" fill="none" xmlns="http://www.w3.org/2000/svg">
<g clip-path="url(#clip0_3437_27341)">
<path d="M31.1851 -6.28736e-06C31.164 0.00843121 31.1387 0.0210875 31.1176 0.0337437L0.877641 5.77124C0.362954 5.86828 -0.00829655 6.3239 0.000140951 6.85124V47.1487C-0.00829655 47.6761 0.362954 48.1317 0.877641 48.2287L31.1176 53.9662C31.4298 54.0253 31.7547 53.9451 32.0036 53.7426C32.2483 53.5401 32.3959 53.2406 32.4001 52.92V47.52H50.7601C51.9414 47.52 52.9201 46.5412 52.9201 45.36V8.63999C52.9201 7.45874 51.9414 6.47999 50.7601 6.47999H32.4001V1.07999C32.4044 0.767807 32.2694 0.472494 32.0373 0.265775C31.8053 0.0590562 31.4931 -0.0379751 31.1851 -6.28736e-06ZM30.2401 2.36249V7.05374C30.0967 7.35328 30.0967 7.69921 30.2401 7.99874V46.2375C30.2106 46.3809 30.2106 46.5328 30.2401 46.6762V51.6375L2.16014 46.2712V7.72874L30.2401 2.36249ZM32.4001 8.63999H50.7601V45.36H32.4001V39.96H36.7201V37.8H32.4001V31.32H36.7201V29.16H32.4001V23.76H36.7201V21.6H32.4001V16.2H36.7201V14.04H32.4001V8.63999ZM38.8801 14.04V16.2H47.5201V14.04H38.8801ZM7.22264 16.9425L13.1289 27.0337L6.68264 37.125H12.0826L15.5926 30.6112C15.8373 29.9827 15.9976 29.5017 16.0651 29.1937H16.0989C16.2381 29.8519 16.3731 30.2991 16.5039 30.5437L20.0139 37.125H25.3801L19.1701 26.9325L25.2114 16.9425H20.1489L16.9426 22.9162C16.6347 23.6967 16.4153 24.3127 16.3014 24.705H16.2676C16.0905 24.0469 15.888 23.4605 15.6601 22.9837L12.7576 16.9425H7.22264ZM38.8801 21.6V23.76H47.5201V21.6H38.8801ZM38.8801 29.16V31.32H47.5201V29.16H38.8801ZM38.8801 37.8V39.96H47.5201V37.8H38.8801Z" fill="black"/>
</g>
<defs>
<clipPath id="clip0_3437_27341">
<rect width="54" height="54" fill="white"/>
</clipPath>
</defs>
</svg>
