<svg width="28" height="28" viewBox="0 0 28 28" fill="none" xmlns="http://www.w3.org/2000/svg">
<g clip-path="url(#clip0_3488_27359)">
<path fill-rule="evenodd" clip-rule="evenodd" d="M14 0C21.732 0 28 6.26801 28 14C28 21.732 21.732 28 14 28C6.26801 28 0 21.732 0 14C0 6.26801 6.26801 0 14 0ZM21.0525 8.69692C20.5399 8.18436 19.7089 8.18436 19.1964 8.69692C19.184 8.7093 19.1724 8.72241 19.1615 8.73618L13.0849 16.4793L9.42124 12.8156C8.90868 12.3031 8.07765 12.3031 7.56508 12.8156C7.05252 13.3282 7.05252 14.1592 7.56508 14.6718L12.1964 19.3031C12.7089 19.8156 13.54 19.8156 14.0525 19.3031C14.0639 19.2917 14.0747 19.2796 14.0848 19.267L21.0711 10.5341C21.565 10.0202 21.5588 9.2032 21.0525 8.69692Z" fill="#00A9B7"/>
</g>
<defs>
<clipPath id="clip0_3488_27359">
<rect width="28" height="28" fill="white"/>
</clipPath>
</defs>
</svg>
