<svg width="28" height="28" viewBox="0 0 28 28" fill="none" xmlns="http://www.w3.org/2000/svg">
<path d="M14 2C7.38337 2 2 7.38337 2 14C2 15.9652 2.51763 17.8021 3.35703 19.4398L2.05625 24.0969C1.75328 25.1789 2.82316 26.2487 3.90547 25.9461L8.56602 24.6453C10.2024 25.483 12.0367 26 14 26C20.6166 26 26 20.6166 26 14C26 7.38337 20.6166 2 14 2ZM14 3.8C19.6438 3.8 24.2 8.35623 24.2 14C24.2 19.6438 19.6438 24.2 14 24.2C12.1991 24.2 10.5144 23.7317 9.04531 22.9133C8.83824 22.7979 8.59399 22.7688 8.36563 22.8324L3.9336 24.0688L5.1711 19.6391C5.23503 19.4103 5.20596 19.1656 5.09023 18.9582C4.27019 17.4881 3.8 15.8027 3.8 14C3.8 8.35623 8.35623 3.8 14 3.8ZM14 7.40117C12.0225 7.40117 10.4 9.02365 10.4 11.0012C10.3954 11.3257 10.5659 11.6276 10.8463 11.7913C11.1266 11.9549 11.4734 11.9549 11.7537 11.7913C12.0341 11.6276 12.2046 11.3257 12.2 11.0012C12.2 9.99669 12.9955 9.20117 14 9.20117C15.0045 9.20117 15.8 9.99669 15.8 11.0012C15.8 11.9529 15.414 12.233 14.7359 12.8668C14.0579 13.5006 13.1 14.4851 13.1 16.1012C13.0954 16.4257 13.2659 16.7276 13.5463 16.8913C13.8266 17.0549 14.1734 17.0549 14.4537 16.8913C14.7341 16.7276 14.9046 16.4257 14.9 16.1012C14.9 15.1054 15.2921 14.8097 15.9641 14.1816C16.636 13.5536 17.6 12.5905 17.6 11.0012C17.6 9.02366 15.9775 7.40117 14 7.40117ZM14 18.2012C13.3373 18.2012 12.8 18.7384 12.8 19.4012C12.8 20.0639 13.3373 20.6012 14 20.6012C14.6627 20.6012 15.2 20.0639 15.2 19.4012C15.2 18.7384 14.6627 18.2012 14 18.2012Z" fill="#7D7F7F"/>
</svg>
