<svg width="22" height="22" viewBox="0 0 22 22" fill="none" xmlns="http://www.w3.org/2000/svg">
<g clip-path="url(#clip0_1620_296733)">
<rect width="22" height="22" transform="translate(0 0.000976562)" fill="white" fill-opacity="0.01"/>
<path d="M2.20281 3.52206C2.0862 3.52041 1.97042 3.54196 1.86221 3.58544C1.754 3.62892 1.65551 3.69348 1.57246 3.77536C1.48942 3.85724 1.42347 3.95481 1.37846 4.06239C1.33345 4.16998 1.31028 4.28544 1.31028 4.40206C1.31028 4.51868 1.33345 4.63414 1.37846 4.74173C1.42347 4.84931 1.48942 4.94688 1.57246 5.02876C1.65551 5.11064 1.754 5.1752 1.86221 5.21868C1.97042 5.26217 2.0862 5.28371 2.20281 5.28206H19.8028C19.9194 5.28371 20.0352 5.26217 20.1434 5.21868C20.2516 5.1752 20.3501 5.11064 20.4332 5.02876C20.5162 4.94688 20.5821 4.84931 20.6272 4.74173C20.6722 4.63414 20.6953 4.51868 20.6953 4.40206C20.6953 4.28544 20.6722 4.16998 20.6272 4.06239C20.5821 3.95481 20.5162 3.85724 20.4332 3.77536C20.3501 3.69348 20.2516 3.62892 20.1434 3.58544C20.0352 3.54196 19.9194 3.52041 19.8028 3.52206H2.20281ZM2.20281 10.1221C2.0862 10.1204 1.97042 10.142 1.86221 10.1854C1.754 10.2289 1.65551 10.2935 1.57246 10.3754C1.48942 10.4572 1.42347 10.5548 1.37846 10.6624C1.33345 10.77 1.31028 10.8854 1.31028 11.0021C1.31028 11.1187 1.33345 11.2341 1.37846 11.3417C1.42347 11.4493 1.48942 11.5469 1.57246 11.6288C1.65551 11.7106 1.754 11.7752 1.86221 11.8187C1.97042 11.8622 2.0862 11.8837 2.20281 11.8821H19.8028C19.9194 11.8837 20.0352 11.8622 20.1434 11.8187C20.2516 11.7752 20.3501 11.7106 20.4332 11.6288C20.5162 11.5469 20.5821 11.4493 20.6272 11.3417C20.6722 11.2341 20.6953 11.1187 20.6953 11.0021C20.6953 10.8854 20.6722 10.77 20.6272 10.6624C20.5821 10.5548 20.5162 10.4572 20.4332 10.3754C20.3501 10.2935 20.2516 10.2289 20.1434 10.1854C20.0352 10.142 19.9194 10.1204 19.8028 10.1221H2.20281ZM2.20281 16.7221C2.0862 16.7204 1.97042 16.742 1.86221 16.7854C1.754 16.8289 1.65551 16.8935 1.57246 16.9754C1.48942 17.0572 1.42347 17.1548 1.37846 17.2624C1.33345 17.37 1.31028 17.4854 1.31028 17.6021C1.31028 17.7187 1.33345 17.8341 1.37846 17.9417C1.42347 18.0493 1.48942 18.1469 1.57246 18.2288C1.65551 18.3106 1.754 18.3752 1.86221 18.4187C1.97042 18.4622 2.0862 18.4837 2.20281 18.4821H19.8028C19.9194 18.4837 20.0352 18.4622 20.1434 18.4187C20.2516 18.3752 20.3501 18.3106 20.4332 18.2288C20.5162 18.1469 20.5821 18.0493 20.6272 17.9417C20.6722 17.8341 20.6953 17.7187 20.6953 17.6021C20.6953 17.4854 20.6722 17.37 20.6272 17.2624C20.5821 17.1548 20.5162 17.0572 20.4332 16.9754C20.3501 16.8935 20.2516 16.8289 20.1434 16.7854C20.0352 16.742 19.9194 16.7204 19.8028 16.7221H2.20281Z" fill="#202121"/>
</g>
<defs>
<clipPath id="clip0_1620_296733">
<rect width="22" height="22" fill="white" transform="translate(0 0.000976562)"/>
</clipPath>
</defs>
</svg>
