<svg width="14" height="15" viewBox="0 0 14 15" fill="none" xmlns="http://www.w3.org/2000/svg">
<g clip-path="url(#clip0_1713_138037)">
<rect width="14" height="14" transform="translate(0 0.501953)" fill="white" fill-opacity="0.01"/>
<g clip-path="url(#clip1_1713_138037)">
<path d="M4.81201 5.31372C4.92804 5.31372 5.03932 5.35981 5.12137 5.44186C5.20342 5.52391 5.24951 5.63519 5.24951 5.75122V11.0012C5.24951 11.1173 5.20342 11.2285 5.12137 11.3106C5.03932 11.3926 4.92804 11.4387 4.81201 11.4387C4.69598 11.4387 4.5847 11.3926 4.50265 11.3106C4.42061 11.2285 4.37451 11.1173 4.37451 11.0012V5.75122C4.37451 5.63519 4.42061 5.52391 4.50265 5.44186C4.5847 5.35981 4.69598 5.31372 4.81201 5.31372ZM6.99951 5.31372C7.11554 5.31372 7.22682 5.35981 7.30887 5.44186C7.39092 5.52391 7.43701 5.63519 7.43701 5.75122V11.0012C7.43701 11.1173 7.39092 11.2285 7.30887 11.3106C7.22682 11.3926 7.11554 11.4387 6.99951 11.4387C6.88348 11.4387 6.7722 11.3926 6.69015 11.3106C6.60811 11.2285 6.56201 11.1173 6.56201 11.0012V5.75122C6.56201 5.63519 6.60811 5.52391 6.69015 5.44186C6.7722 5.35981 6.88348 5.31372 6.99951 5.31372ZM9.62451 5.75122C9.62451 5.63519 9.57842 5.52391 9.49637 5.44186C9.41432 5.35981 9.30304 5.31372 9.18701 5.31372C9.07098 5.31372 8.9597 5.35981 8.87765 5.44186C8.79561 5.52391 8.74951 5.63519 8.74951 5.75122V11.0012C8.74951 11.1173 8.79561 11.2285 8.87765 11.3106C8.9597 11.3926 9.07098 11.4387 9.18701 11.4387C9.30304 11.4387 9.41432 11.3926 9.49637 11.3106C9.57842 11.2285 9.62451 11.1173 9.62451 11.0012V5.75122Z" fill="#dc3545"/>
<path fill-rule="evenodd" clip-rule="evenodd" d="M12.687 3.12622C12.687 3.35829 12.5948 3.58084 12.4307 3.74494C12.2666 3.90903 12.0441 4.00122 11.812 4.00122H11.3745V11.8762C11.3745 12.3403 11.1901 12.7855 10.8619 13.1137C10.5338 13.4418 10.0886 13.6262 9.62451 13.6262H4.37451C3.91038 13.6262 3.46526 13.4418 3.13707 13.1137C2.80889 12.7855 2.62451 12.3403 2.62451 11.8762V4.00122H2.18701C1.95495 4.00122 1.73239 3.90903 1.56829 3.74494C1.4042 3.58084 1.31201 3.35829 1.31201 3.12622V2.25122C1.31201 2.01916 1.4042 1.7966 1.56829 1.6325C1.73239 1.46841 1.95495 1.37622 2.18701 1.37622H5.24951C5.24951 1.14416 5.3417 0.921597 5.50579 0.757502C5.66989 0.593408 5.89245 0.501221 6.12451 0.501221H7.87451C8.10658 0.501221 8.32914 0.593408 8.49323 0.757502C8.65732 0.921597 8.74951 1.14416 8.74951 1.37622H11.812C12.0441 1.37622 12.2666 1.46841 12.4307 1.6325C12.5948 1.7966 12.687 2.01916 12.687 2.25122V3.12622ZM3.60276 4.00122L3.49951 4.05285V11.8762C3.49951 12.1083 3.5917 12.3308 3.75579 12.4949C3.91989 12.659 4.14245 12.7512 4.37451 12.7512H9.62451C9.85658 12.7512 10.0791 12.659 10.2432 12.4949C10.4073 12.3308 10.4995 12.1083 10.4995 11.8762V4.05285L10.3963 4.00122H3.60276ZM2.18701 3.12622V2.25122H11.812V3.12622H2.18701Z" fill="#dc3545"/>
</g>
</g>
<defs>
<clipPath id="clip0_1713_138037">
<rect width="14" height="14" fill="white" transform="translate(0 0.501953)"/>
</clipPath>
<clipPath id="clip1_1713_138037">
<rect width="14" height="14" fill="white" transform="translate(0 0.501953)"/>
</clipPath>
</defs>
</svg>
