<svg width="16" height="16" viewBox="0 0 16 16" fill="none" xmlns="http://www.w3.org/2000/svg">
<path d="M13.0526 0C11.4323 0 10.1053 1.32706 10.1053 2.94737C10.1053 3.19401 10.1889 3.41451 10.2467 3.64391L5.19819 6.16941C4.65647 5.50482 3.8659 5.05263 2.94737 5.05263C1.32706 5.05263 0 6.37969 0 8C0 9.62031 1.32706 10.9474 2.94737 10.9474C3.8659 10.9474 4.65647 10.4952 5.19819 9.83059L10.2467 12.3561C10.1889 12.5855 10.1053 12.806 10.1053 13.0526C10.1053 14.6729 11.4323 16 13.0526 16C14.6729 16 16 14.6729 16 13.0526C16 11.4323 14.6729 10.1053 13.0526 10.1053C12.1341 10.1053 11.3435 10.5574 10.8018 11.222L5.75329 8.69655C5.81114 8.46714 5.89474 8.24664 5.89474 8C5.89474 7.75336 5.81114 7.53286 5.75329 7.30345L10.8018 4.77796C11.3435 5.44255 12.1341 5.89474 13.0526 5.89474C14.6729 5.89474 16 4.56767 16 2.94737C16 1.32706 14.6729 0 13.0526 0ZM13.0526 1.26316C13.9903 1.26316 14.7368 2.00972 14.7368 2.94737C14.7368 3.88501 13.9903 4.63158 13.0526 4.63158C12.115 4.63158 11.3684 3.88501 11.3684 2.94737C11.3684 2.00972 12.115 1.26316 13.0526 1.26316ZM2.94737 6.31579C3.88501 6.31579 4.63158 7.06236 4.63158 8C4.63158 8.93764 3.88501 9.68421 2.94737 9.68421C2.00972 9.68421 1.26316 8.93764 1.26316 8C1.26316 7.06236 2.00972 6.31579 2.94737 6.31579ZM13.0526 11.3684C13.9903 11.3684 14.7368 12.115 14.7368 13.0526C14.7368 13.9903 13.9903 14.7368 13.0526 14.7368C12.115 14.7368 11.3684 13.9903 11.3684 13.0526C11.3684 12.115 12.115 11.3684 13.0526 11.3684Z" fill="black"/>
</svg>
