<svg width="48" height="49" viewBox="0 0 48 49" fill="none" xmlns="http://www.w3.org/2000/svg">
<g clip-path="url(#clip0_1713_138073)">
<rect width="48" height="48" transform="translate(0 0.00195312)" fill="white" fill-opacity="0.01"/>
<path d="M14.9398 12.0012C14.715 12.0015 14.4931 12.0524 14.2906 12.15C14.0881 12.2476 13.9101 12.3895 13.7698 12.5652L4.61983 24.0012H17.9998C18.3977 24.0012 18.7792 24.1593 19.0605 24.4406C19.3418 24.7219 19.4998 25.1034 19.4998 25.5012C19.4998 26.6947 19.9739 27.8393 20.8179 28.6832C21.6618 29.5271 22.8064 30.0012 23.9998 30.0012C25.1933 30.0012 26.3379 29.5271 27.1818 28.6832C28.0257 27.8393 28.4998 26.6947 28.4998 25.5012C28.4998 25.1034 28.6579 24.7219 28.9392 24.4406C29.2205 24.1593 29.602 24.0012 29.9998 24.0012H43.3798L34.2298 12.5652C34.0895 12.3895 33.9116 12.2476 33.709 12.15C33.5065 12.0524 33.2847 12.0015 33.0598 12.0012H14.9398ZM44.8018 27.0012H31.3498C31.0056 28.6967 30.0857 30.2209 28.7462 31.3158C27.4067 32.4106 25.7299 33.0087 23.9998 33.0087C22.2698 33.0087 20.593 32.4106 19.2534 31.3158C17.9139 30.2209 16.9941 28.6967 16.6498 27.0012H3.19783L4.15783 34.6872C4.20323 35.0505 4.37987 35.3846 4.6545 35.6266C4.92913 35.8686 5.28278 36.0019 5.64883 36.0012H42.3508C42.7164 36.0011 43.0693 35.8675 43.3433 35.6256C43.6173 35.3836 43.7935 35.0499 43.8388 34.6872L44.7988 27.0012H44.8018ZM11.4268 10.6902C11.8486 10.1629 12.3837 9.73734 12.9923 9.44496C13.601 9.15258 14.2676 9.00092 14.9428 9.00122H33.0568C33.7321 9.00092 34.3987 9.15258 35.0074 9.44496C35.616 9.73734 36.151 10.1629 36.5728 10.6902L47.6728 24.5652C47.7975 24.7218 47.8897 24.9017 47.9438 25.0944C47.9978 25.2871 48.0128 25.4886 47.9878 25.6872L46.8178 35.0592C46.6818 36.1479 46.1527 37.1494 45.3301 37.8753C44.5075 38.6012 43.448 39.0016 42.3508 39.0012H5.64883C4.5517 39.0016 3.49221 38.6012 2.66958 37.8753C1.84696 37.1494 1.31788 36.1479 1.18183 35.0592L0.0118346 25.6872C-0.0127542 25.4884 0.00271582 25.2868 0.057332 25.0941C0.111948 24.9013 0.204604 24.7215 0.329835 24.5652L11.4298 10.6902H11.4268Z" fill="#0094A8"/>
</g>
<defs>
<clipPath id="clip0_1713_138073">
<rect width="48" height="48" fill="white" transform="translate(0 0.00195312)"/>
</clipPath>
</defs>
</svg>
