<svg width="190" height="138" viewBox="0 0 190 138" fill="none" xmlns="http://www.w3.org/2000/svg">
<g clip-path="url(#clip0_3553_493548)">
<path d="M112.924 16.6094L121.915 122.14H120.168L111.173 16.6094H112.924Z" fill="#D5E7F2"/>
<path d="M101.906 75.8711H100.156L96.7426 122.139H98.4932L101.906 75.8711ZM58.7132 75.8711L55.3 122.139H57.0507L60.4639 75.8711H58.7132Z" fill="#D5E7F2"/>
<path d="M50.4012 89.3962C50.2724 91.1356 51.6488 92.6177 53.393 92.6177H105.215C106.786 92.6177 108.091 91.4059 108.207 89.8393L114.008 11.495C114.137 9.75561 112.761 8.27344 111.016 8.27344H59.1944C57.6235 8.27344 56.3186 9.48528 56.2026 11.0519L50.4012 89.3962Z" fill="#D5E7F2"/>
<path d="M104.265 90.3683C105.313 90.3683 106.183 89.5601 106.26 88.5154L111.892 12.1862C111.978 11.0268 111.06 10.0391 109.897 10.0391H60.138C59.0905 10.0391 58.2205 10.8473 58.1434 11.892L52.5149 88.2212C52.4294 89.3806 53.347 90.3683 54.5095 90.3683H104.265Z" fill="white"/>
<path fill-rule="evenodd" clip-rule="evenodd" d="M96.6471 71.2124H101.099C101.859 71.2124 102.486 70.6237 102.541 69.8611L102.872 65.3627C102.934 64.5149 102.27 63.793 101.429 63.793H96.9774C96.2177 63.793 95.5901 64.3816 95.5351 65.1443L95.2047 69.6426C95.1424 70.4905 95.8066 71.2124 96.6471 71.2124Z" fill="#FFDF79"/>
<path d="M90.4043 73.3711L90.3089 74.6447H102.189L102.284 73.3711H90.4043ZM102.108 75.7628H90.2281L90.1327 77.0364H102.013L102.108 75.7628ZM101.932 78.1545H90.052L89.9566 79.4281H101.837L101.932 78.1545ZM101.756 80.5462H89.8758L89.7804 81.8198H101.66L101.756 80.5462ZM101.58 82.9379H95.7773L95.6819 84.2115H101.484L101.58 82.9379Z" fill="#E6F0F3"/>
<path d="M80.796 71.2124H85.2478C86.0075 71.2124 86.6351 70.6237 86.6902 69.8611L87.0205 65.3627C87.0829 64.5149 86.4186 63.793 85.5781 63.793H81.1263C80.3666 63.793 79.739 64.3816 79.684 65.1443L79.3537 69.6426C79.2913 70.4905 79.9556 71.2124 80.796 71.2124Z" fill="#F58A8A"/>
<path d="M74.5532 73.3711L74.4578 74.6447H86.3379L86.4333 73.3711H74.5532ZM86.2571 75.7628H74.3771L74.2816 77.0364H86.1617L86.2571 75.7628ZM86.081 78.1545H74.2009L74.1055 79.4281H85.9855L86.081 78.1545ZM85.9048 80.5462H74.0247L73.9293 81.8198H85.8094L85.9048 80.5462ZM85.7286 82.9379H79.9262L79.8308 84.2115H85.6332L85.7286 82.9379Z" fill="#E6F0F3"/>
<path fill-rule="evenodd" clip-rule="evenodd" d="M64.9486 71.2124H69.4004C70.1601 71.2124 70.7877 70.6237 70.8428 69.8611L71.1731 65.3627C71.2354 64.5149 70.5712 63.793 69.7307 63.793H65.2789C64.5192 63.793 63.8916 64.3816 63.8366 65.1443L63.5063 69.6426C63.4439 70.4905 64.1082 71.2124 64.9486 71.2124Z" fill="#A5E1E8"/>
<path d="M58.7058 73.3711L58.6104 74.6447H70.4905L70.5859 73.3711H58.7058ZM70.4097 75.7628H58.5297L58.4342 77.0364H70.3143L70.4097 75.7628ZM70.2335 78.1545H58.3535L58.2581 79.4281H70.1381L70.2335 78.1545ZM70.0574 80.5462H58.1773L58.0819 81.8198H69.962L70.0574 80.5462ZM69.8812 82.9379H64.0788L63.9834 84.2115H69.7858L69.8812 82.9379Z" fill="#E6F0F3"/>
<path d="M71.7273 18.2084H97.3995L97.5169 16.6016H71.8447L71.7273 18.2084ZM62.8713 19.6893L62.7539 21.2961H105.918L106.035 19.6893H62.8713ZM101.437 22.777H67.0149L66.8974 24.3838H101.315L101.433 22.777H101.437Z" fill="#D0E4EE"/>
<path fill-rule="evenodd" clip-rule="evenodd" d="M81.9338 58.167H93.4762L94.335 46.5195H82.7926L81.9338 58.167Z" fill="#FFDF79"/>
<path d="M81.009 38.444C81.6035 38.3589 82.1467 38.5033 82.5688 38.7995C82.8917 39.029 83.3652 38.7809 83.3945 38.3663L83.6514 34.875H95.1938L94.3314 46.5188H90.8705C90.4631 46.5188 90.1805 46.9779 90.3824 47.3222C90.6429 47.7702 90.7457 48.3255 90.6172 48.9216C90.397 49.9286 89.5089 50.7357 88.4959 50.8468C87.1197 50.9986 86.0443 49.9249 86.1434 48.581C86.1764 48.1219 86.3453 47.6961 86.6022 47.337C86.8554 46.9853 86.6609 46.5188 86.2425 46.5188H82.7853L83.0422 43.0312C83.0716 42.6091 82.6275 42.3759 82.2641 42.6091C81.8935 42.8424 81.4604 42.9794 81.0053 42.9794C79.6731 42.9794 78.6931 41.8131 78.9464 40.4396C79.1336 39.4251 79.9924 38.5921 81.0016 38.444H81.009Z" fill="#F58A8A"/>
<path d="M75.1037 47.2861C74.7588 47.7378 74.5642 48.3117 74.6046 48.9225C74.6743 49.9296 75.4451 50.7367 76.4396 50.8477C77.7939 50.9995 79.0271 49.9259 79.1261 48.5819C79.1628 48.108 79.0491 47.6638 78.8289 47.3009C78.6307 46.9714 78.8876 46.5234 79.2876 46.5234H82.7926L82.543 49.9222C82.5136 50.2998 82.899 50.5368 83.2403 50.3516C83.666 50.1221 84.1578 50.0184 84.6643 50.0851C85.6662 50.2221 86.4149 51.0588 86.4516 52.0806C86.503 53.4579 85.3543 54.6241 84.0184 54.6241C83.622 54.6241 83.2587 54.5204 82.9467 54.339C82.6311 54.1539 82.209 54.3872 82.1833 54.7685L81.9338 58.1672H70.3914L71.2538 46.5234H74.7588C75.1478 46.5234 75.357 46.964 75.1111 47.2898L75.1037 47.2861Z" fill="#A5E1E8"/>
<path d="M65.0478 29.3633H76.5902L76.3333 32.8546C76.3039 33.2655 75.8305 33.5173 75.5075 33.2877C75.0854 32.9916 74.5423 32.8472 73.9477 32.9323C72.9384 33.0804 72.0796 33.9134 71.8925 34.9279C71.6392 36.3051 72.6191 37.4677 73.9514 37.4677C74.4065 37.4677 74.8395 37.3307 75.2102 37.0974C75.5772 36.8679 76.0213 37.0974 75.9883 37.5195L75.7314 41.0071H71.6796C71.4667 41.0071 71.342 41.2699 71.4851 41.418C71.9585 41.903 72.1897 42.625 72.0173 43.4099C71.797 44.4169 70.9089 45.224 69.8959 45.3351C68.5197 45.4869 67.4443 44.4132 67.5434 43.0693C67.5911 42.4177 67.9068 41.8327 68.3692 41.418C68.5343 41.2699 68.4389 41.0108 68.2297 41.0108H64.1853L65.0478 29.367V29.3633Z" fill="#CEF4FA"/>
</g>
<g clip-path="url(#clip1_3553_493548)">
<path d="M7.5332 97.5855C7.38484 98.9764 7.29895 100.462 7.93924 101.711C8.57172 102.959 10.1803 103.805 11.3906 103.125C12.0777 102.746 12.4681 102.003 12.8195 101.292C14.8107 97.3405 16.8096 93.389 18.8008 89.4375C20.4405 86.1815 22.135 82.72 21.9242 79.0688C21.8305 77.3776 21.3073 75.7022 20.3 74.3508C19.4176 73.1732 17.5046 71.3002 16.1928 72.6753C14.8809 74.0426 13.983 76.4371 13.1553 78.1363C11.2422 82.0561 9.76641 86.1894 8.75913 90.4412C8.20473 92.7963 7.79869 95.183 7.54101 97.5855H7.5332Z" fill="#F7B690"/>
<path fill-rule="evenodd" clip-rule="evenodd" d="M21.9086 79.834C21.7992 77.9531 21.2214 76.0801 20.097 74.5865C19.1209 73.2746 18.5431 69.987 17.0829 71.5201C15.6228 73.0454 13.0694 76.9099 12.1402 78.7988C10.9221 81.2803 9.87576 83.8487 8.9856 86.4725L18.5431 91.159C20.3391 87.5947 22.135 83.825 21.9086 79.8419V79.834Z" fill="#0094A8"/>
<path d="M7.83777 97.3092C8.80601 96.1158 10.477 95.697 11.9997 95.8629C13.5145 96.0368 14.9278 96.7085 16.3099 97.3645C18.8399 98.5815 21.3698 99.7986 23.8997 101.024C26.5077 102.28 29.1158 103.545 31.7316 104.801C32.1376 104.999 32.5827 105.244 32.7155 105.678C32.856 106.145 32.5515 106.658 32.1298 106.903C31.7082 107.148 31.2084 107.188 30.7321 107.212C26.8123 107.417 22.869 107.038 19.0585 106.113C17.1298 105.647 15.2402 105.038 13.3974 104.303C11.8201 103.671 9.57124 102.968 8.29847 101.79C7.08035 100.668 6.76801 98.629 7.84558 97.3013L7.83777 97.3092Z" fill="#F7B690"/>
<path fill-rule="evenodd" clip-rule="evenodd" d="M24.2268 106.213C27.1393 105.778 40.9447 105.778 43.8494 106.213C47.4647 106.75 46.9259 111.302 46.4652 114.029C45.9655 117 45.3564 120.201 43.2013 122.279C41.093 124.31 26.9832 124.31 24.8749 122.279C22.712 120.201 22.1029 117.008 21.611 114.029C21.1581 111.302 20.6115 106.742 24.2268 106.213Z" fill="#10406B"/>
<path fill-rule="evenodd" clip-rule="evenodd" d="M74.8802 118.714C76.395 120.405 77.3867 123.187 76.0749 124.949C74.9582 126.443 43.787 123.503 39.18 123.503C35.9082 119.275 36.0332 112.858 44.4272 108.535C46.2232 107.61 48.1909 108.582 50.143 109.001C55.7885 110.202 71.1087 114.501 74.8802 118.714Z" fill="#11406B"/>
<path fill-rule="evenodd" clip-rule="evenodd" d="M7.48539 88.6051C5.23656 88.4076 2.74567 89.2927 1.65249 91.2921C0.754521 92.9281 0.949732 94.9986 1.70715 96.7057C2.46457 98.4127 3.71392 99.8352 4.94765 101.234C22.7665 121.387 23.0554 122.295 26.0382 123.109C31.1137 124.485 37.2512 123.086 32.7457 111.287C32.0195 109.382 13.084 89.103 7.4932 88.613L7.48539 88.6051Z" fill="#11406B"/>
<path d="M23.3444 129.81C22.1575 129.107 19.8072 126.017 17.0508 121.939L22.2356 120.09C23.93 126.175 24.5859 130.545 23.3444 129.81Z" fill="#F7B690"/>
<path fill-rule="evenodd" clip-rule="evenodd" d="M2.97217 88.9366C6.13459 87.3955 9.25016 87.7986 11.7723 91.9397C15.1768 97.5271 19.7447 111.152 22.2356 120.09L16.2856 122.817C12.5219 114.123 5.10388 102.846 2.22256 97.7247C0.614024 94.8559 0.473472 90.1536 2.96436 88.9366H2.97217Z" fill="#1A4F81"/>
<path d="M39.0628 124.121L41.6396 128.989C37.7978 129.25 34.6979 129.29 33.3939 128.744C32.082 128.191 34.6979 126.255 39.0628 124.121Z" fill="#F7B690"/>
<path fill-rule="evenodd" clip-rule="evenodd" d="M69.5002 118.629C74.3102 118.629 76.6839 121.134 76.6839 122.897C76.6839 125.892 74.8568 129.1 70.3044 129.1C64.5184 129.1 50.0103 128.903 41.1165 129.511L39.0707 124.129C45.6376 120.921 62.4726 118.637 69.5002 118.637V118.629Z" fill="#1A4F81"/>
<path fill-rule="evenodd" clip-rule="evenodd" d="M31.4965 128.067C31.6682 127.956 32.9957 125.981 33.8624 125.633C34.3622 125.427 35.0415 125.111 35.5803 125.372C36.1893 125.672 36.2206 126.534 36.5798 127.047C36.853 127.435 37.22 127.751 37.6417 127.964L38.485 126.818C41.46 128.209 39.0941 131.71 42.0847 133.156C42.8031 133.504 43.5917 133.749 44.2086 134.263C44.8255 134.777 45.2159 135.709 44.8098 136.405C44.6537 136.665 44.4116 136.847 44.1305 136.958L34.5105 132.232C34.5105 132.232 34.4559 130.264 34.7292 130.043C34.4012 130.177 33.636 130.533 33.2846 130.541L31.5043 128.075L31.4965 128.067Z" fill="#0A3C5F"/>
<path fill-rule="evenodd" clip-rule="evenodd" d="M16.84 130.073C16.8087 129.267 17.1367 128.603 17.4803 128.414C17.8238 128.224 18.3548 126.873 19.0654 124.897C19.3855 123.996 21.1893 123.743 22.095 125.3C22.384 125.806 22.6573 126.13 22.9852 126.122C23.2585 126.114 23.5708 125.632 23.8285 125.948C24.0628 126.232 24.1252 126.975 24.1799 127.505C24.2814 128.414 24.3751 129.338 24.4688 130.255C24.4922 130.46 24.5078 130.666 24.5157 130.879H16.9961C16.9024 130.658 16.84 130.381 16.8322 130.081L16.84 130.073Z" fill="#0A3C5F"/>
<path d="M60.5361 97.5855C60.6845 98.9764 60.7704 100.462 60.1301 101.711C59.4976 102.959 57.8891 103.805 56.6787 103.125C55.9916 102.746 55.6012 102.003 55.2498 101.292C53.2587 97.3405 51.2597 93.389 49.2685 89.4375C47.6288 86.1815 45.9343 82.72 46.1452 79.0688C46.2389 77.3776 46.762 75.7022 47.7693 74.3508C48.6517 73.1732 50.5647 71.3002 51.8766 72.6753C53.1884 74.0426 54.0863 76.4371 54.914 78.1363C56.8271 82.0561 58.3029 86.1894 59.3102 90.4412C59.8646 92.7963 60.2706 95.183 60.5283 97.5855H60.5361Z" fill="#F7B690"/>
<path fill-rule="evenodd" clip-rule="evenodd" d="M46.1529 79.834C46.2622 77.9531 46.8401 76.0801 47.9645 74.5865C48.9405 73.2746 49.5184 69.987 50.9785 71.5201C52.4387 73.0454 54.9921 76.9099 55.9213 78.7988C57.1394 81.2803 58.1857 83.8487 59.0759 86.4725L49.5184 91.159C47.7224 87.5947 45.9265 83.825 46.1529 79.8419V79.834Z" fill="#0094A8"/>
<path d="M59.9817 98.0045C59.0135 96.8111 57.3425 96.3923 55.8198 96.5582C54.305 96.7321 52.8917 97.4039 51.5096 98.0598C48.9796 99.2769 46.4497 100.494 43.9198 101.719C41.3118 102.975 38.7037 104.24 36.0879 105.496C35.6819 105.694 35.2368 105.939 35.104 106.374C34.9635 106.84 35.268 107.354 35.6897 107.599C36.1113 107.844 36.6111 107.883 37.0874 107.907C41.0072 108.112 44.9505 107.733 48.761 106.808C50.6897 106.342 52.5793 105.734 54.4221 104.999C55.9994 104.366 58.2483 103.663 59.521 102.485C60.7391 101.363 61.0515 99.3243 59.9739 97.9966L59.9817 98.0045Z" fill="#F7B690"/>
<path fill-rule="evenodd" clip-rule="evenodd" d="M16.6912 71.9551C17.6204 70.8171 19.0259 70.1928 20.4002 69.6791C24.4372 68.1854 33.6902 64.2655 34.0415 64.2734C34.3929 64.2734 43.6459 68.1854 47.6829 69.6791C49.0572 70.1849 50.4549 70.8092 51.3919 71.9551C52.6334 73.4804 52.7974 75.6616 52.3523 77.5899C51.9072 79.5182 50.9312 81.2569 50.0801 83.0351C49.0181 85.2558 48.1436 87.5556 47.4486 89.9185C46.2071 94.1861 45.5746 98.6355 45.598 103.085C45.598 104.452 46.3164 106.76 45.9026 108.04C45.3794 109.66 42.6308 110.024 41.2409 110.205C38.8593 110.514 36.4465 110.616 34.0493 110.522C31.6522 110.624 29.2393 110.522 26.8578 110.205C25.4679 110.024 22.7115 109.66 22.1961 108.04C21.7823 106.752 22.5007 104.444 22.5007 103.085C22.5241 98.6355 21.8916 94.1861 20.6501 89.9185C19.9629 87.5556 19.0806 85.2479 18.0186 83.0351C17.1675 81.2569 16.1914 79.5103 15.7464 77.5899C15.3013 75.6695 15.4653 73.4804 16.7068 71.9551H16.6912Z" fill="#0094A8"/>
<path d="M21 97V76L18 91.5L21 97Z" fill="#098394"/>
<path d="M46.8582 96.9771L47.1421 75.979L49.9323 91.5181L46.8582 96.9771Z" fill="#098394"/>
<path d="M30.9886 63.7921C31.3634 62.5671 31.5664 60.2752 32.316 59.4612C32.7689 58.9713 35.1115 58.9713 35.5565 59.4612C36.3061 60.2752 36.5092 62.5671 36.884 63.7921C37.3056 65.1672 37.6726 66.811 37.2353 68.1703C36.9308 69.1186 36.2749 69.6877 35.6112 69.8852C35.0568 70.0433 32.808 70.0433 32.2614 69.8852C31.5977 69.6956 30.9496 69.1266 30.6372 68.1703C30.1999 66.811 30.5669 65.1672 30.9886 63.7921Z" fill="#F4A086"/>
<path d="M28.974 53.4801C29.7314 51.2514 38.1567 51.2514 38.9063 53.4801C39.5075 55.2503 39.5934 57.2498 39.2499 59.1149C38.9297 60.8772 38.227 62.4736 37.2353 63.7934C36.5638 64.6944 35.6892 66.0221 34.7054 66.4725H33.1593C32.1832 66.0221 31.3087 64.6944 30.6293 63.7934C29.6455 62.4736 28.9427 60.8772 28.6148 59.1149C28.2712 57.2498 28.3571 55.2503 28.9583 53.4801H28.974Z" fill="#F7B690"/>
<path fill-rule="evenodd" clip-rule="evenodd" d="M29.2316 59.3788C29.13 58.8493 28.8958 58.3593 28.7943 57.8298C28.6928 57.3003 28.5054 56.6997 28.888 56.3203C29.2316 57.9325 29.9109 59.5289 30.4341 61.0937C30.5512 61.4335 30.6761 61.7813 30.9182 62.0341C31.2227 62.3503 31.6678 62.4688 32.0894 62.5478C32.558 62.6348 33.7995 62.0974 33.94 62.1053C34.0806 62.0974 35.3221 62.6269 35.7906 62.5478C36.2201 62.4688 36.6574 62.3503 36.9619 62.0341C37.2118 61.7813 37.3367 61.4256 37.446 61.0937C37.9692 59.5289 38.4065 57.9325 38.75 56.3203C39.1249 56.6997 39.1795 57.3003 39.078 57.8298C38.9765 58.3593 38.75 58.8493 38.6407 59.3788C38.6329 59.4183 38.6251 59.4657 38.6173 59.5052C38.5626 59.8529 38.5783 60.2244 38.7188 60.5405C38.7813 60.6906 38.8672 60.7855 38.875 60.9435C38.875 61.0937 38.8125 61.2834 38.7891 61.4335C38.6485 62.1448 38.4455 62.8482 38.18 63.5278C37.9145 64.2075 37.5944 64.8555 37.2118 65.4798C37.0244 65.7881 36.8214 66.0963 36.6027 66.3887C36.509 66.5072 36.0874 67.2027 35.9468 67.2027L34.2992 67.6769H33.534L31.8864 67.2027C31.7459 67.2027 31.3242 66.5072 31.2305 66.3887C31.0119 66.0963 30.8167 65.796 30.6215 65.4798C30.2467 64.8634 29.9187 64.2075 29.6532 63.5278C29.3877 62.8482 29.1847 62.1527 29.0442 61.4335C29.0129 61.2834 28.9505 61.1016 28.9583 60.9435C28.9583 60.7776 29.052 60.6827 29.1144 60.5405C29.255 60.2165 29.2706 59.845 29.2159 59.5052C29.2159 59.4657 29.2003 59.4183 29.1925 59.3788H29.2316Z" fill="#F7B690"/>
<path d="M32.0427 58.9299C30.782 53.8692 32.9181 53.3069 34.1438 53.6584C34.5641 50.7066 33.2683 48.9128 32.5678 48.3848C27.9453 46.2762 25.7391 51.0206 25.2139 53.6564C25.2139 59.5605 29.7664 59.6321 32.0427 58.9299Z" fill="#171717"/>
<path d="M35.8014 58.9299C37.0621 53.8692 35.3693 53.3049 34.1437 53.6564C33.7233 50.7046 34.5758 48.9128 35.2763 48.3848C39.8988 46.2762 42.105 51.0206 42.6302 53.6564C42.6302 59.5605 38.0777 59.6321 35.8014 58.9299Z" fill="#171717"/>
<path d="M40.2024 58.9608C40.4054 58.5814 40.5772 58.1468 40.5147 57.7121C40.4601 57.2774 40.1009 56.8665 39.6948 56.9139C39.445 56.9455 39.2341 57.1431 39.1092 57.3723C38.9843 57.6015 38.9218 57.8702 38.8671 58.1389C38.7656 58.5972 38.6641 59.0556 38.5704 59.5219C38.4845 59.9091 38.4377 60.3991 38.7422 60.6283C39.2966 61.0392 39.9838 59.3796 40.2102 58.9687L40.2024 58.9608Z" fill="#F7B690"/>
<path d="M27.7399 58.9608C27.5369 58.5814 27.3651 58.1468 27.4276 57.7121C27.4822 57.2774 27.8414 56.8665 28.2475 56.9139C28.4973 56.9455 28.7082 57.1431 28.8331 57.3723C28.958 57.6015 29.0205 57.8702 29.0752 58.1389C29.1767 58.5972 29.2782 59.0556 29.3719 59.5219C29.4578 59.9091 29.5046 60.3991 29.2001 60.6283C28.6457 61.0392 27.9585 59.3796 27.7321 58.9687L27.7399 58.9608Z" fill="#F7B690"/>
<path d="M20.7491 110.59H48.5817C49.8832 110.59 50.972 109.597 51.0741 108.3L52.5201 91.1542C52.6392 89.6957 51.4909 88.4492 50.0278 88.4492H19.3115C17.8485 88.4492 16.6916 89.6957 16.8192 91.1542L18.2653 108.3C18.3759 109.589 19.4562 110.59 20.7576 110.59H20.7491Z" fill="#E7F3F7"/>
<path d="M52.451 91.6121C52.1873 90.615 51.2093 89.8593 50.0187 89.8593H19.3098C18.1192 89.8593 17.1412 90.615 16.8776 91.6121L16.8181 90.9344C16.699 89.5944 17.8471 88.4492 19.3098 88.4492H50.0272C51.49 88.4492 52.6466 89.5944 52.519 90.9344L52.4595 91.6121H52.451Z" fill="#A4CED8"/>
<ellipse cx="3.15228" cy="1.69977" rx="3.15228" ry="1.69977" transform="matrix(0.972758 0.231824 -0.230268 0.973127 29.1482 47.0977)" fill="#171717"/>
<ellipse cx="3.5926" cy="2.72308" rx="3.5926" ry="2.72308" transform="matrix(0.994105 0.108419 -0.107755 0.994178 32.9746 46.2773)" fill="#171717"/>
</g>
<path fill-rule="evenodd" clip-rule="evenodd" d="M147.57 95.9806C148.157 92.6173 148.743 89.2539 149.335 85.8906C149.967 82.2808 150.599 78.6042 150.278 74.8506C149.957 71.0971 149.534 66.1933 146.831 63.8466C143.369 60.8427 137.877 59.7285 136.771 64.7863C132.88 82.5786 142.293 111.082 144.21 117.511C144.741 119.288 145.301 121.064 145.883 122.826H150.757C150.003 112.854 150.054 101.347 147.576 95.9806H147.57Z" fill="#D7E6E6"/>
<path d="M150.758 122.816H145.884C146.567 124.886 147.281 126.945 148.036 128.994C148.301 129.713 148.673 130.529 149.402 130.745C150.335 131.017 151.574 130.195 151.431 129.24C151.141 127.238 150.932 125.065 150.758 122.822V122.816Z" fill="#F4A086"/>
<path fill-rule="evenodd" clip-rule="evenodd" d="M150.967 100.259C151.564 101.886 152.527 103.72 154.057 103.771C154.985 103.802 155.847 103.114 156.377 102.23C156.907 101.352 157.172 100.3 157.422 99.2676C158.519 94.8106 159.62 90.3484 160.716 85.8913C161.603 82.2815 162.501 78.605 162.45 74.8514C162.399 71.0978 161.257 67.185 158.717 64.8384C155.475 61.8345 149.575 62.1991 148.418 67.3134C146.883 74.0914 146.959 81.6345 147.984 88.4998C148.586 92.5307 149.585 96.4897 150.967 100.259Z" fill="#E0EDED"/>
<path fill-rule="evenodd" clip-rule="evenodd" d="M158.141 94.7279C155.107 90.353 149.386 93.1104 150.656 98.4199C152.19 104.838 154.653 111.19 157.131 117.291C157.784 118.903 158.467 120.505 159.171 122.097L163.918 120.556C162.291 110.584 161.241 99.1953 158.146 94.7279H158.141Z" fill="#E0EDED"/>
<path d="M163.913 120.552L159.166 122.092C160.058 124.121 160.986 126.139 161.955 128.131C162.281 128.804 162.725 129.559 163.464 129.651C164.408 129.769 165.555 128.742 165.331 127.813C164.79 125.579 164.336 123.109 163.918 120.547L163.913 120.552Z" fill="#F7B690"/>
<path fill-rule="evenodd" clip-rule="evenodd" d="M166.753 130.756C166.672 129.888 166.585 129.005 166.244 128.204C165.907 127.423 165.678 126.607 164.954 126.16C164.857 126.597 164.326 127.259 163.893 127.351C163.546 127.423 161.7 126.781 161.395 126.956C161.175 127.079 161.359 130.699 160.441 131.588C159.523 132.471 158.376 133.072 157.32 133.791C156.953 134.042 156.591 134.319 156.352 134.694C156.117 135.074 156.03 135.572 156.24 135.968C156.26 136.004 156.285 136.029 156.311 136.065L163.847 134.807C163.98 134.52 164.087 134.212 164.189 133.914C164.551 132.83 164.918 131.752 165.28 130.669C165.785 131.86 166.111 133.123 166.249 134.407L167.09 134.268C166.978 133.097 166.871 131.927 166.759 130.756H166.753Z" fill="#576D87"/>
<path fill-rule="evenodd" clip-rule="evenodd" d="M147.327 75.3618C149.821 75.2899 168.238 76.9073 158.04 60.6247C156.617 58.3551 153.018 58.1086 150.376 57.7748C146.797 57.3178 139.827 57.3538 138.108 60.6247C132.739 70.8328 144.569 75.4388 147.332 75.3618H147.327Z" fill="#E0EDED"/>
<path fill-rule="evenodd" clip-rule="evenodd" d="M144.334 39.3265C145.088 36.6717 145.665 33.6473 144.793 30.9464C144.522 30.1043 144.466 29.9656 143.717 30.3867C143.125 30.7153 142.585 31.3212 142.121 31.809C141.172 32.8001 140.367 33.9297 139.673 35.1159C138.949 36.3585 138.348 37.6628 137.797 38.9927L143.497 41.9504C143.798 41.0877 144.079 40.2148 144.329 39.3367L144.334 39.3265Z" fill="#9DDCE0"/>
<path d="M137.885 38.9817C137.518 39.8598 137.176 40.7481 136.83 41.6364L131.165 56.2862C130.986 56.7483 130.808 57.2515 130.945 57.7239C131.165 58.4788 132.128 58.792 132.878 58.5712C133.627 58.3504 134.199 57.7496 134.714 57.1591C138.609 52.7226 141.638 47.521 143.591 41.9342L137.89 38.9766L137.885 38.9817Z" fill="#EDAB84"/>
<path d="M128.053 40.6876C128.16 40.169 128.394 39.5425 128.919 39.4809C129.419 39.4244 129.781 39.9277 130.026 40.3744C132.055 44.1228 134.661 56.2822 133.565 57.8535C132.545 59.322 131.301 59.3939 130.347 57.8997C128.404 54.8547 127.624 42.7775 128.053 40.6927V40.6876Z" fill="#F7B690"/>
<path fill-rule="evenodd" clip-rule="evenodd" d="M154.2 52.7391C153.542 46.4541 160.242 41.1806 159.615 34.8904C159.186 30.5976 154.975 27.2137 150.692 27.2702C146.408 27.3267 142.477 30.459 140.948 34.4898C140.223 36.4 139.979 38.495 140.239 40.5233C140.422 41.9405 140.84 43.3115 141.08 44.7236C141.57 47.6094 141.274 50.5466 140.601 53.3759C140.009 55.8406 138.74 58.1924 138.107 60.6263H158.039C157.463 59.6096 154.393 54.5569 154.2 52.7443V52.7391Z" fill="#B1EAEE"/>
<path fill-rule="evenodd" clip-rule="evenodd" d="M152.441 132.376C152.503 131.509 152.559 130.62 152.35 129.778C152.146 128.951 151.85 128.109 151.207 127.555C151.039 127.971 150.616 128.535 150.167 128.551C149.815 128.566 148.072 127.822 147.745 127.945C147.506 128.032 147.123 131.442 146.073 132.161C145.022 132.885 143.794 133.28 142.636 133.819C142.233 134.004 141.831 134.22 141.535 134.554C141.239 134.887 141.071 135.37 141.219 135.791C141.234 135.832 141.254 135.863 141.275 135.899H148.913C149.091 135.637 149.244 135.349 149.392 135.072C149.928 134.066 150.463 133.059 150.993 132.053C151.299 133.311 151.411 134.61 151.34 135.904H152.192C152.273 134.733 152.355 133.557 152.436 132.387L152.441 132.376Z" fill="#576D87"/>
<path fill-rule="evenodd" clip-rule="evenodd" d="M161.202 35.0924C160.186 33.1832 158.691 31.4569 156.73 30.5648C156.245 30.3459 155.653 30.1848 155.213 30.4856C154.8 30.7654 154.713 31.3318 154.685 31.8291C154.514 35.1117 155.593 38.301 156.767 41.388L162.815 39.1816C162.385 37.7748 161.892 36.3908 161.202 35.0924Z" fill="#B0EAEE"/>
<path d="M163.48 41.1738C163.293 40.5043 163.099 39.8307 162.895 39.1591L156.847 41.3655C156.962 41.6621 157.071 41.9547 157.185 42.2462C158.373 45.3303 159.556 48.4104 160.744 51.4945C161.188 52.6527 161.439 54.0998 162.661 54.6659C163.536 55.0751 164.692 54.9844 165.398 54.2862C166.012 53.6791 166.262 52.7772 166.255 51.9153C166.247 51.0483 166.015 50.2044 165.78 49.3715C165.013 46.6339 164.246 43.9013 163.479 41.1637L163.48 41.1738Z" fill="#F7B690"/>
<path fill-rule="evenodd" clip-rule="evenodd" d="M140.898 10.6391C141.292 9.26724 142.46 8.1568 143.843 7.84C145.225 7.5232 146.757 8.02212 147.701 9.08699C148.181 9.63142 148.528 10.3186 149.15 10.6886C149.963 11.1784 150.995 10.9903 151.931 11.1269C153.357 11.3373 154.619 12.4109 155.067 13.7897C155.976 16.582 153.658 19.6423 154.487 22.4583C154.869 23.7406 155.847 24.7451 156.844 25.624C157.845 26.5023 158.92 27.3421 159.615 28.484C160.305 29.6264 160.525 31.1834 159.748 32.2641C159.191 33.0385 158.256 33.423 157.354 33.7218C156.348 34.0569 155.301 34.1949 154.251 34.3022C151.816 34.5511 151.303 29.504 150.784 25.6136C150.484 23.363 145.265 23.6487 144.41 21.5476C143.94 20.3931 144.205 19.0756 143.964 17.8564C143.725 16.6678 143.024 15.8774 142.174 15.0766C141.539 14.4757 141.057 13.5133 140.854 12.6721C140.694 12.0072 140.698 11.2944 140.888 10.6351L140.898 10.6391Z" fill="#CB7627"/>
<path d="M156.586 14.4274C156.166 3.04799 147.656 6.52503 143.979 8.63232V11.7927L148.707 13.9H152.909L153.96 15.4804L153.435 20.7487L153.96 24.4365L154.485 28.1242L151.333 28.651C152.174 30.3369 153.084 34.9729 153.435 37.0802L153.96 37.607C155.22 38.8714 158.687 37.0802 160.263 36.0266C164.045 32.6549 161.489 27.5974 159.738 25.4901C155.536 20.8541 156.236 15.4808 156.586 14.4274Z" fill="#CB7627"/>
<path d="M147.186 22.4889C147.726 24.0084 147.919 25.6484 147.753 27.2495C147.703 27.7441 147.642 28.324 147.996 28.6719C148.331 29.0074 148.877 28.96 149.346 28.8901C150.129 28.7736 150.931 28.6534 151.637 28.2897C152.343 27.9261 152.957 27.2818 153.068 26.4943C153.157 25.8414 152.905 25.1932 152.655 24.5864C152.179 23.4156 151.702 22.2447 151.221 21.0797C151.081 20.7348 150.928 20.3765 150.639 20.1526C150.15 19.772 149.412 19.9015 148.921 20.2832C148.431 20.6649 148.14 21.2345 147.858 21.7923L147.182 22.4949L147.186 22.4889Z" fill="#EDAB84"/>
<path d="M144.589 23.0293C143.971 22.3841 143.607 21.5458 143.255 20.7257C142.774 19.5961 142.292 18.4455 142.131 17.2313C141.97 16.0122 142.163 14.6977 142.915 13.7351C143.823 12.5725 145.395 12.1112 146.869 12.1431C148.149 12.1713 149.496 12.5823 150.303 13.5769C150.744 14.1164 150.993 14.7917 151.235 15.4474C151.55 16.3009 151.865 17.1756 151.861 18.0863C151.856 19.0943 151.454 20.0654 150.87 20.8836C150.292 21.7003 149.543 22.3822 148.777 23.0264C148.332 23.3976 147.876 23.767 147.337 23.974C146.263 24.3866 145.334 23.8068 144.594 23.0278L144.589 23.0293Z" fill="#F7B690"/>
<path fill-rule="evenodd" clip-rule="evenodd" d="M147.219 14.5904C147.85 15.6976 147.8 17.1789 148.701 18.0727C149.436 18.8027 150.714 18.8733 151.521 18.2335C152.138 17.7472 152.444 16.9262 152.409 16.1348C152.375 15.3434 152.022 14.595 151.525 13.9852C151.027 13.3754 150.384 12.8991 149.712 12.4929C148.68 11.8655 147.534 11.3839 146.337 11.2534C145.575 11.1713 144.792 11.2358 144.064 11.4806C143.514 11.6658 142.459 12.0833 142.375 12.7681C142.296 13.4472 142.886 13.5056 143.34 13.3302C144.029 13.0583 144.663 12.9368 145.397 13.1508C146.158 13.3724 146.827 13.9028 147.22 14.5955L147.219 14.5904Z" fill="#CB7627"/>
<path d="M150.373 17.0759C150.474 16.8587 150.596 16.6488 150.77 16.4898C150.946 16.3271 151.181 16.2226 151.416 16.2413C151.734 16.271 151.991 16.5289 152.158 16.8047C152.567 17.505 152.482 18.3963 151.782 18.8657C151.251 19.2232 150.68 18.99 150.332 18.4818C150.035 18.0463 150.168 17.5211 150.377 17.0795L150.373 17.0759Z" fill="#F7B690"/>
<path d="M127.746 39.4158C127.628 38.2861 127.888 37.0589 128.689 36.2579C129.331 35.6109 130.249 35.3079 131.152 35.2309C131.544 35.1949 132.039 35.2668 132.161 35.6468C132.268 35.9806 131.993 36.3041 131.855 36.6276C131.534 37.367 131.911 38.1988 131.998 38.9999C132.1 39.8831 131.82 40.8073 131.254 41.4903C130.8 42.0294 129.525 42.9999 128.786 42.5173C128.097 42.0705 127.822 40.1758 127.746 39.4209V39.4158Z" fill="#F7B690"/>
<path d="M149.612 50.5577C148.963 50.4924 147.425 50.3658 147.32 51.1121C147.24 51.691 148.455 52.9346 148.937 53.096C152.29 54.2347 163.652 55.8069 164.464 55.6425C165.798 55.3707 167.067 51.7675 165.406 50.7199C163.719 49.6552 155.521 51.1706 149.612 50.5526L149.612 50.5577Z" fill="#F7B690"/>
<path d="M147.172 49.2201C146.035 48.8853 144.898 48.5505 143.761 48.2158C143.514 48.2962 143.549 48.683 143.743 48.8502C143.942 49.0177 144.211 49.0568 144.445 49.1703C144.673 49.2885 144.874 49.5741 144.741 49.7905C144.608 50.0119 144.277 49.9686 144.031 49.8952C142.883 49.5649 141.736 49.2294 140.584 48.8987C140 49.6324 140.158 50.771 140.743 51.5086C141.324 52.2458 142.23 52.6569 143.135 52.9244C144.393 53.2982 145.712 53.4405 147.021 53.3566C147.774 53.306 148.58 53.1515 149.105 52.6034C150.437 51.2139 148.384 49.5703 147.177 49.2153L147.172 49.2201Z" fill="#F7B690"/>
<g clip-path="url(#clip2_3553_493548)">
<path d="M175.543 0.372329C169.833 1.8479 166.244 7.32208 167.024 12.9875C167.024 15.9398 166.224 17.7615 165.306 21.4049C165.306 21.4049 165.821 20.9119 169.741 18.9536C172.523 22.1324 176.975 23.6718 181.363 22.5423C187.531 20.9483 191.231 14.6999 189.624 8.57905C188.018 2.44906 181.711 -1.22165 175.543 0.372329Z" fill="#D5E7F2"/>
<path d="M173.995 8.46962H183.523C183.793 8.46962 184.012 8.12365 184.012 7.69575C184.012 7.26784 183.793 6.92188 183.523 6.92188H173.995C173.725 6.92188 173.506 7.26784 173.506 7.69575C173.506 8.12365 173.725 8.46962 173.995 8.46962Z" fill="white"/>
<path d="M173.995 12.0946H183.523C183.793 12.0946 184.012 11.7487 184.012 11.3207C184.012 10.8928 183.793 10.5469 183.523 10.5469H173.995C173.725 10.5469 173.506 10.8928 173.506 11.3207C173.506 11.7487 173.725 12.0946 173.995 12.0946Z" fill="white"/>
<path d="M173.995 15.7313H183.523C183.793 15.7313 184.012 15.3854 184.012 14.9575C184.012 14.5296 183.793 14.1836 183.523 14.1836H173.995C173.725 14.1836 173.506 14.5296 173.506 14.9575C173.506 15.3854 173.725 15.7313 173.995 15.7313Z" fill="white"/>
</g>
<defs>
<clipPath id="clip0_3553_493548">
<rect width="71.4381" height="115.973" fill="white" transform="translate(50.4775 6.16406)"/>
</clipPath>
<clipPath id="clip1_3553_493548">
<rect width="76.6909" height="91.5391" fill="white" transform="translate(0 46.4609)"/>
</clipPath>
<clipPath id="clip2_3553_493548">
<rect width="28.3651" height="29.5205" fill="white" transform="translate(161.635)"/>
</clipPath>
</defs>
</svg>
