<svg width="190" height="138" viewBox="0 0 190 138" fill="none" xmlns="http://www.w3.org/2000/svg">
<path d="M16.368 133.776C17.835 133.984 19.3221 133.865 20.6685 133.43C20.3771 131.749 20.0958 130.078 19.8044 128.396C19.7642 128.189 19.724 127.961 19.5934 127.783C19.3924 127.516 19.0508 127.417 18.7292 127.368C17.5235 127.16 15.7149 127.101 15.8455 128.555C15.9962 130.295 16.1972 132.036 16.368 133.776Z" fill="#F4A086"/>
<path d="M9.46509 127.109C10.49 128.167 11.7359 128.978 13.0622 129.453C13.8661 127.94 14.6699 126.427 15.4737 124.914C15.5742 124.726 15.6847 124.518 15.6847 124.29C15.6847 123.964 15.4838 123.667 15.2627 123.43C14.4388 122.53 13.0622 121.383 12.2684 122.619C11.3139 124.093 10.4096 125.606 9.47514 127.099L9.46509 127.109Z" fill="#F4A086"/>
<path fill-rule="evenodd" clip-rule="evenodd" d="M29.9225 63.2124C28.2445 60.2949 15.0215 64.3299 15.4737 69.3934C16.0565 75.8712 17.9354 82.7643 20.156 89.1827C20.2464 89.4597 20.3469 89.7267 20.4474 90.0036C21.6431 93.3562 21.5426 97.0253 20.1058 100.279C17.001 107.301 15.0517 116.844 11.7861 122.402L15.6847 125.409C16.368 124.766 31.1182 100.22 31.8819 96.9264C32.4546 94.4441 31.2589 65.5167 29.9326 63.1926L29.9225 63.2124Z" fill="#196B99"/>
<path fill-rule="evenodd" clip-rule="evenodd" d="M6.77226 72.4485C6.86269 73.9617 10.7814 72.9925 12.2785 72.9925C24.5972 72.9925 31.7211 69.0465 30.013 63.4786C28.2647 57.7623 17.2421 58.6821 11.4847 60.5216C10.2488 60.9172 8.4402 61.3029 7.58613 62.4402C6.36029 64.0917 6.44068 66.9894 6.76221 72.4387L6.77226 72.4485Z" fill="#2077A8"/>
<path d="M24.8283 32.7146C25.2302 38.2825 26.3355 43.9888 29.5206 48.6172C30.2039 49.6161 31.2087 50.6446 32.4245 50.5259C33.1379 50.4567 33.7508 49.9721 34.1326 49.3787C34.5144 48.7854 34.6953 48.0832 34.8259 47.3909C35.8608 41.9516 34.1728 36.4034 32.4848 31.1125C31.7915 28.9367 30.867 25.0797 28.6163 23.9128C26.2752 22.6864 25.0895 26.4643 24.8785 28.0071C24.6575 29.5697 24.7077 31.152 24.8182 32.7146H24.8283Z" fill="#F4A086"/>
<path fill-rule="evenodd" clip-rule="evenodd" d="M24.557 24.7912C24.6675 23.8714 24.9187 22.7836 25.7828 22.3781C26.6972 21.9528 27.6819 22.5759 28.3953 23.1989C32.7159 27.0164 34.3537 32.4063 35.1374 38.1917L24.768 38.8247C24.0747 34.2161 23.9943 29.4888 24.5469 24.7912H24.557Z" fill="#C0E0F4"/>
<path fill-rule="evenodd" clip-rule="evenodd" d="M13.2029 100.576C13.7857 102.079 14.6196 103.77 16.0163 104.195C16.9809 104.482 19.945 102.643 20.568 101.901C21.191 101.159 23.5221 71.1537 22.467 68.978C21.0603 66.0605 18.1464 64.1617 15.3129 63.7265C11.2034 63.0936 6.69187 64.3298 6.68182 69.3933C6.67178 75.8711 7.90766 82.7642 9.54547 89.1826C10.5302 93.0396 11.746 96.8471 13.2029 100.576Z" fill="#2077A8"/>
<path fill-rule="evenodd" clip-rule="evenodd" d="M20.9498 96.4616C19.4426 93.4947 14.5493 91.1508 12.5799 96.6099C9.39476 105.392 13.424 118.526 15.3431 128.672H20.2967C20.5479 127.753 21.7938 98.1132 20.9498 96.4616Z" fill="#2077A8"/>
<path fill-rule="evenodd" clip-rule="evenodd" d="M28.6666 46.5506C29.591 42.0706 31.1685 37.6894 31.8317 33.1698C32.1431 31.0534 32.5953 28.4525 31.3494 26.6327C30.224 24.9911 25.3608 18.543 18.8699 18.543C9.61581 18.543 5.71723 22.2516 4.41101 26.6426C3.47656 32.1908 3.79809 39.7465 5.48613 45.0573C7.10384 50.1603 5.38566 55.5898 3.89857 66.8443H30.6259C30.5254 60.4555 27.7422 51.0405 28.6666 46.5506Z" fill="#C0E0F4"/>
<path d="M29.9326 23.4648C30.646 23.4648 36.0618 44.1739 34.012 47.4573C32.9771 49.1088 31.2187 49.1385 29.6713 48.2979C27.5211 47.1309 26.6168 23.4648 29.9326 23.4648Z" fill="#F4A086"/>
<path d="M1.18564 40.3101C1.52727 35.2861 3.38612 30.361 6.47082 26.3458C7.02345 25.6238 7.81724 24.8524 8.72154 25.0404C9.21389 25.1491 9.60576 25.5348 9.82681 25.97C10.0479 26.415 10.1383 26.9095 10.2086 27.3941C11.0828 33.1005 11.133 38.8958 11.1833 44.6615C11.1933 46.4318 11.2134 48.2317 10.7713 49.9525C10.3292 51.6733 9.37466 53.3348 7.83733 54.2644C7.0335 54.749 5.65694 55.2138 4.74259 54.749C4.00909 54.3732 3.64737 53.137 3.34593 52.4546C2.27081 50.0316 1.57751 47.4405 1.28612 44.8099C1.12535 43.3165 1.08516 41.8034 1.18564 40.3101Z" fill="#F7B690"/>
<path fill-rule="evenodd" clip-rule="evenodd" d="M9.82682 24.604C9.60577 23.704 9.2139 22.6755 8.30959 22.4381C7.35504 22.1909 5.88805 23.2788 5.26509 24.0403C1.51723 28.639 0.0200957 34.2267 0 40.1209L11.4244 38.5979C11.5048 33.8904 10.9723 29.173 9.82682 24.6139V24.604Z" fill="#C0E0F4"/>
<path d="M11.4339 26.2001L10.8258 39.1883L13.0934 29.6869L11.4339 26.2001Z" fill="#A5CBE2"/>
<path d="M26.9183 46.8638C27.702 47.3286 27.8728 48.4461 27.5111 49.2769C27.1494 50.1076 10.2187 55.181 7.00338 55.2502C6.01869 55.27 4.89333 55.2206 4.29045 54.4591C3.74787 53.7767 3.85839 52.8075 4.10959 51.9767C4.52155 50.5823 5.27514 49.0098 6.38041 48.0209C7.14405 47.3385 8.06845 47.6253 9.01295 47.5956C12.4694 47.4967 26.4259 46.577 26.9384 46.8638H26.9183Z" fill="#F7B690"/>
<path fill-rule="evenodd" clip-rule="evenodd" d="M27.4709 12.4231C27.069 12.8681 26.7072 12.6506 26.8479 12.0868C27.2699 10.2572 27.4005 9.98033 26.8781 8.17052C26.5967 7.17166 26.456 7.06287 26.9484 6.8453C28.5561 6.09368 30.7967 8.78368 27.4809 12.433L27.4709 12.4231Z" fill="#6F3E23"/>
<path d="M21.4723 12.1543C20.8393 9.40498 18.7192 8.75226 17.4933 9.41487C16.7096 14.5674 15.9058 16.8618 13.8459 19.6705C16.3981 21.2825 20.7589 20.9858 21.6933 19.6705C21.7335 19.2551 21.7938 13.5784 21.4723 12.1543Z" fill="#F4A086"/>
<path d="M20.4775 6.27168C22.8388 4.32341 26.6067 5.48051 27.4307 8.60565C28.1842 11.4638 25.6924 16.7251 24.3661 17.6646C22.035 19.3063 18.3976 16.2207 18.1263 14.5988C17.7244 12.2253 18.4881 7.91337 20.4675 6.27168H20.4775Z" fill="#F7B690"/>
<path fill-rule="evenodd" clip-rule="evenodd" d="M19.5129 13.6768C19.4627 13.9735 19.4225 14.3196 19.6235 14.557C19.7842 14.7548 20.0656 14.824 20.3168 14.8042C20.568 14.7844 20.8091 14.6855 21.0603 14.6064C22.0952 14.2603 23.2306 14.2009 24.2957 14.4383C24.778 14.5471 25.2804 14.735 25.5618 15.1504C25.7828 15.4866 25.823 15.902 25.8029 16.3075C25.7728 16.8118 25.6622 17.3162 25.4211 17.7612C25.1799 18.2063 24.7981 18.592 24.3259 18.7799C23.6627 19.0469 22.8991 18.9183 22.2158 18.7107C20.99 18.3447 19.8244 17.7415 18.9402 16.8316C18.056 15.9218 17.5034 14.6757 17.5737 13.4197C17.6139 12.7966 17.8048 12.1834 18.1263 11.6494C18.4077 11.1846 18.8096 10.7692 19.322 10.5813C20.1259 10.2945 19.955 10.9571 19.8747 11.4219C19.7541 12.1834 19.6335 12.945 19.5129 13.6966V13.6768Z" fill="#6F3E23"/>
<path fill-rule="evenodd" clip-rule="evenodd" d="M21.3215 7.21969C21.3517 7.66473 19.2416 13.0645 19.0909 12.9755C18.5785 12.6392 18.1766 10.9382 17.1115 10.7899C16.7699 10.7404 16.2675 10.869 16.378 10.2064C17.1316 5.98348 16.9206 6.16149 17.7546 5.92414C19.6034 5.39999 21.2512 6.42852 21.3115 7.21969H21.3215Z" fill="#6F3E23"/>
<path fill-rule="evenodd" clip-rule="evenodd" d="M17.1714 1.96954C21.1303 -0.719433 27.0284 -0.429146 28.4954 1.54175C30.6757 4.47517 28.0633 10.2198 27.0886 10.2962C26.6465 10.3267 26.325 9.71561 26.0135 9.22671C24.5365 6.95025 22.8384 7.85167 21.502 7.83639C19.1508 7.80583 13.7853 4.26128 17.1614 1.96954H17.1714Z" fill="#6F3E23"/>
<path d="M16.3177 9.97054C16.1168 10.6331 16.1972 11.3749 16.5288 11.988C17.4833 13.7385 19.1412 11.9386 19.101 10.6035C19.0508 9.02113 16.8603 8.15083 16.3177 9.96065V9.97054Z" fill="#F7B690"/>
<path fill-rule="evenodd" clip-rule="evenodd" d="M14.3383 129.671C14.4488 129.414 14.5795 129.147 14.5292 128.88C14.4589 128.524 14.0871 128.286 13.7254 128.217C13.3637 128.148 12.9819 128.197 12.6101 128.168C11.9469 128.108 11.3139 127.772 10.8919 127.258C10.5402 126.832 10.4699 126.091 9.90721 125.863C9.41486 125.665 8.83209 125.982 8.40003 126.19C7.65649 126.546 6.91294 126.912 6.1694 127.268C6.00864 127.347 5.83782 127.436 5.6871 127.535L8.16893 130.452C8.48041 130.432 9.13352 130.076 9.42491 129.938C9.19381 130.146 8.70146 130.709 8.65123 131.006L13.1828 136.91L15.102 135.189C13.8862 133.646 13.5847 131.451 14.3484 129.651L14.3383 129.671Z" fill="#0A3C5F"/>
<path fill-rule="evenodd" clip-rule="evenodd" d="M15.7048 134.806C15.0115 134.648 14.288 134.776 13.5746 134.767C13.5345 134.767 13.4842 134.767 13.444 134.767L13.1727 136.952H16.6794C16.8603 136.744 16.9909 136.507 17.011 136.25C17.0713 135.548 16.3981 134.974 15.7048 134.816V134.806Z" fill="#0A3C5F"/>
<path fill-rule="evenodd" clip-rule="evenodd" d="M22.6881 136.25C22.7182 135.547 22.4168 134.974 22.1154 134.816C21.8139 134.657 21.3316 133.48 20.7087 131.77C20.4173 130.988 18.8197 130.771 18.0158 132.116C17.7546 132.551 17.5134 132.838 17.222 132.828C16.9809 132.828 16.6996 132.403 16.4684 132.679C16.2574 132.927 16.2072 133.569 16.157 134.024C16.0665 134.816 15.9862 135.607 15.8957 136.408C15.8756 136.586 15.8555 136.764 15.8555 136.952H22.5474C22.6278 136.754 22.6881 136.527 22.6981 136.259L22.6881 136.25Z" fill="#0A3C5F"/>
<path d="M28.2244 45.4617C28.5962 45.2243 29.2091 45.0562 29.39 45.4518C29.5005 45.6891 29.3398 45.9562 29.1488 46.1441C28.9579 46.332 28.7268 46.4803 28.6264 46.7177C28.4555 47.133 28.8072 47.6077 29.2393 47.7561C29.6713 47.9044 30.1335 47.8154 30.5857 47.7264C31.7914 47.4891 32.9972 47.2418 34.2029 47.0045C34.7053 46.9056 35.3383 46.8561 35.6096 47.2913C35.8005 47.6077 35.68 48.0132 35.5192 48.3396C34.8761 49.6648 33.6804 50.7329 32.2838 51.2373C30.8771 51.7416 29.2694 51.6724 27.913 51.0691C27.089 50.7032 26.3455 50.1197 25.9134 49.3384C24.7177 47.1528 26.667 46.4704 28.2345 45.4815L28.2244 45.4617Z" fill="#F7B690"/>
<path d="M29.4604 20.4715C28.5661 19.621 27.1694 19.3045 25.9938 19.7001C25.2202 19.9572 24.4867 20.6396 24.5871 21.4308C24.6675 22.044 25.3005 22.5286 25.9235 22.4593C25.9336 23.211 26.647 23.745 27.28 24.1505C27.6618 24.3977 28.0436 24.645 28.4254 24.8922C28.7671 25.1098 29.1489 25.3471 29.5508 25.268C31.4398 24.912 30.3144 21.2726 29.4604 20.4715Z" fill="#F7B690"/>
<g clip-path="url(#clip0_3553_493424)">
<path d="M154.325 74.4631H143.814L138.567 62.582H149.07L154.325 74.4631Z" fill="#BBCFDB"/>
<path d="M153.139 74.4631H142.637L137.381 62.582H147.893L153.139 74.4631Z" fill="#D5E7F2"/>
<path d="M121.528 66.1231C119.534 66.1231 118.144 64.5813 118.426 62.6852L123.11 31.18C123.392 29.2839 125.245 27.7422 127.24 27.7422H169.85C171.845 27.7422 173.235 29.2839 172.953 31.18L168.269 62.6852C167.987 64.5813 166.133 66.1231 164.139 66.1231H121.528Z" fill="#D5E7F2"/>
<path d="M122.662 64.0318C121.535 64.0318 120.75 63.1224 120.907 61.9978L125.153 32.0457C125.31 30.9211 126.349 30.0117 127.477 30.0117H168.956C170.084 30.0117 170.868 30.9211 170.711 32.0457L166.465 61.9978C166.308 63.1224 165.269 64.0318 164.141 64.0318H122.662Z" fill="white"/>
<path d="M168.034 37.1393H126.438C126.016 37.1393 125.732 36.8069 125.79 36.3864L126.065 34.4795C126.124 34.059 126.516 33.7266 126.928 33.7266H168.524C168.946 33.7266 169.231 34.059 169.172 34.4795L168.897 36.3864C168.838 36.8069 168.446 37.1393 168.034 37.1393Z" fill="#EAF4FA"/>
<path d="M129.065 57.3415H123.564C123.123 57.3415 122.809 56.9797 122.878 56.5396L125.359 39.3683C125.427 38.9282 125.83 38.5664 126.281 38.5664H131.782C132.223 38.5664 132.537 38.9282 132.468 39.3683L129.987 56.5396C129.919 56.9797 129.517 57.3415 129.065 57.3415Z" fill="#EAF4FA"/>
<path d="M165.749 51.8772H151.129C150.688 51.8772 150.374 51.5154 150.442 51.0753L152.129 39.3604C152.198 38.9204 152.6 38.5586 153.051 38.5586H167.671C168.113 38.5586 168.426 38.9204 168.358 39.3604L166.671 51.0753C166.603 51.5154 166.201 51.8772 165.749 51.8772Z" fill="#EAF4FA"/>
<path d="M166.259 53.8801C166.328 53.4009 166.044 53.0195 165.632 53.0195H150.903C150.491 53.0195 150.099 53.4009 150.031 53.8801L149.099 60.3242H165.328L166.259 53.8801Z" fill="#EAF4FA"/>
<path d="M149.001 47.8683C149.07 47.3892 148.785 47.0078 148.373 47.0078H142.764C142.353 47.0078 141.96 47.3892 141.892 47.8683L140.097 60.3362H147.206L149.001 47.8683Z" fill="#EAF4FA"/>
<path d="M129.575 59.3957C129.644 58.9165 129.36 58.5352 128.948 58.5352H123.339C122.927 58.5352 122.535 58.9165 122.466 59.3957L122.329 60.3247H129.438L129.575 59.3957Z" fill="#EAF4FA"/>
<path d="M138.773 50.7917H133.272C132.831 50.7917 132.517 50.4299 132.586 49.9899L134.116 39.3604C134.184 38.9204 134.586 38.5586 135.037 38.5586H140.538C140.98 38.5586 141.293 38.9204 141.225 39.3604L139.695 49.9899C139.626 50.4299 139.224 50.7917 138.773 50.7917Z" fill="#EAF4FA"/>
<path d="M143.235 38.5586L142.294 45.0516C142.225 45.5308 142.509 45.9122 142.921 45.9122H148.53C148.942 45.9122 149.334 45.5308 149.403 45.0516L150.344 38.5586H143.235Z" fill="#EAF4FA"/>
<path d="M139.548 52.7355C139.617 52.2564 139.332 51.875 138.92 51.875H133.311C132.9 51.875 132.507 52.2564 132.439 52.7355L131.34 60.3238H138.45L139.548 52.7355Z" fill="#EAF4FA"/>
<path d="M129.026 43.4367H125.722L126.271 39.6523H129.566L129.026 43.4367Z" fill="white"/>
<path fill-rule="evenodd" clip-rule="evenodd" d="M137.773 43.4367H134.478L135.028 39.6523H138.322L137.773 43.4367Z" fill="white"/>
<path d="M134.321 44.543L134.223 45.1884H139.548L139.646 44.543H134.321ZM134.057 46.4107H139.381L139.479 45.7653H134.155L134.057 46.4107ZM133.88 47.633H139.205L139.303 46.9876H133.978L133.88 47.633ZM133.704 48.8554H139.028L139.126 48.21H133.802L133.704 48.8554ZM133.527 50.0777H136.126L136.224 49.4323H133.625L133.527 50.0777Z" fill="#F7F6F0"/>
<path d="M145.569 51.884H142.264L142.813 48.0898H146.108L145.569 51.884Z" fill="white"/>
<path d="M166.563 43.4367H152.541L153.08 39.6523H167.103L166.563 43.4367Z" fill="white"/>
<path fill-rule="evenodd" clip-rule="evenodd" d="M135.851 56.8039H132.547L133.096 53.0195H136.391L135.851 56.8039Z" fill="white"/>
<path fill-rule="evenodd" clip-rule="evenodd" d="M127.349 55.0031H124.055L124.604 51.2188H127.899L127.349 55.0031Z" fill="#45D8F9"/>
<path d="M123.898 56.1016L123.8 56.747H129.124L129.222 56.1016H123.898Z" fill="#F7F6F0"/>
<path d="M110.345 48.0216C111.483 52.7545 113.17 57.3603 115.376 61.702C115.974 62.8755 116.827 64.1858 118.151 64.264C119.681 64.352 120.946 62.807 121.201 61.3011C121.907 57.1843 120.867 50.5934 119.74 45L110.345 48.0216Z" fill="#F4A086"/>
<path fill-rule="evenodd" clip-rule="evenodd" d="M120.2 42.9364C119.475 39.5041 118.347 30.7228 113.719 30.3317C108.306 29.8721 108.208 37.7831 108.61 41.2252C108.894 43.6601 109.335 46.0754 109.904 48.4614L120.622 45.0095C120.485 44.3152 120.338 43.6209 120.191 42.9364H120.2Z" fill="#D2EFF2"/>
<path d="M133.958 43.2298C134.782 42.7409 135.811 42.2324 136.645 42.7018C137.88 43.3863 137.39 45.2638 136.684 46.4862C132.987 52.9108 127.898 58.5335 121.897 62.8948C118.573 65.3101 117.004 64.8017 115.248 61.1053C113.317 57.0374 128.839 46.3004 133.968 43.2298H133.958Z" fill="#F7B690"/>
<path d="M135.713 39.857C137.841 38.175 140.803 38.1848 143.509 38.2728C143.656 38.6151 143.362 38.9964 143.029 39.1529C142.685 39.3094 142.303 39.3289 141.96 39.4756C141.067 39.8765 140.812 41.0206 140.822 41.9985C140.832 42.9764 140.979 44.0227 140.489 44.8734C139.989 45.734 138.939 46.1447 137.949 46.2131C136.743 46.3011 133.723 45.7144 133.399 44.2183C133.105 42.8395 134.723 40.649 135.713 39.8667V39.857Z" fill="#F7B690"/>
<path d="M103.482 58.8274C102.295 55.9622 89.8024 59.4141 87.6942 64.2057C86.3115 65.164 85.1643 66.6601 84.6151 68.1856C83.7032 70.7085 84.0268 73.2216 84.3896 75.6076C85.6938 84.1444 87.3804 92.5443 89.4494 100.788C89.5965 101.394 89.7632 102.02 90.1849 102.45C91.2439 103.565 92.9992 103.096 94.5289 102.069C94.6368 102.118 94.7446 102.167 94.8525 102.206C95.8429 102.519 99.0592 100.563 99.7554 99.7708C100.461 98.9885 104.443 61.1254 103.482 58.8274Z" fill="#1D3850"/>
<path d="M89.0866 133.516C90.5575 133.741 92.1461 133.614 93.6856 133.154C93.8915 131.375 94.0876 129.605 94.2935 127.825C94.323 127.6 94.3426 127.365 94.2543 127.179C94.1268 126.896 93.7934 126.788 93.4797 126.739C92.2833 126.524 90.4104 126.456 90.1064 128.001C89.7436 129.839 89.4298 131.687 89.0866 133.536V133.516Z" fill="#F4A086"/>
<path d="M100.442 94.019C99.4122 90.8703 95.3036 88.719 91.6656 94.1755C86.1252 102.497 91.1164 118.065 89.5377 128.117H94.7152C95.1467 127.149 101.011 95.7694 100.442 94.0288V94.019Z" fill="#1D3850"/>
<path d="M76.6919 68.0386C77.9569 69.0263 79.6141 69.1827 81.183 69.1827C94.0484 69.1827 101.491 65.0072 99.7162 59.1204C97.8923 53.0674 86.3802 54.0453 80.3593 55.9913C79.065 56.4118 77.1724 56.8225 76.2899 58.0252C75.0053 59.7756 73.6325 65.6331 76.6919 68.0386Z" fill="#00666B"/>
<path d="M74.0247 64.448C75.8486 55.8917 91.2341 58.0137 93.0188 66.5016C93.9307 70.8727 92.7736 75.41 91.2929 79.6246C90.077 83.0862 88.6551 86.4697 87.0176 89.7553C85.5467 92.7085 83.8306 96.5711 82.0362 99.3384C81.84 99.6416 74.211 99.2309 73.9365 97.6076C73.2403 93.5788 72.8088 89.4815 72.6421 85.3647C72.3577 78.5098 72.5833 71.1953 74.0247 64.448Z" fill="#2E465B"/>
<path d="M103.845 136.127C103.913 135.393 103.207 134.777 102.481 134.601C101.756 134.425 101.001 134.562 100.256 134.552C98.1375 134.523 96.0782 133.262 95.1075 131.384C94.9702 131.13 94.8427 130.836 94.5877 130.7C94.2445 130.514 93.8131 130.651 93.5091 130.895C93.2051 131.14 92.9992 131.472 92.7246 131.746C92.2343 132.235 91.5283 132.509 90.8419 132.499C90.2633 132.499 89.6063 132.049 89.0474 132.342C88.5571 132.597 88.4198 133.281 88.2923 133.77C88.0766 134.611 87.8805 135.452 87.6746 136.293C87.6255 136.479 87.5863 136.674 87.5667 136.86H91.6067C91.7931 136.596 91.95 135.824 92.0284 135.511C92.0382 135.833 92.1755 136.606 92.3814 136.86H103.482C103.668 136.655 103.805 136.41 103.835 136.127H103.845Z" fill="#0A3C5F"/>
<path d="M58.8746 131.353C60.1886 132.136 61.6889 132.605 63.2088 132.722C63.7873 131.041 64.3659 129.359 64.9444 127.677C65.0131 127.462 65.0915 127.237 65.0523 127.022C64.9935 126.699 64.7091 126.464 64.4345 126.288C63.3755 125.623 61.6595 124.851 61.0417 126.259C60.2964 127.941 59.6002 129.652 58.8844 131.353H58.8746Z" fill="#F4A086"/>
<path d="M82.3695 98.2539C82.4284 94.89 78.8982 90.7634 74.2012 95.0954C66.6409 102.058 63.8266 115.924 60.4926 126.172L65.2876 128.128C66.0035 127.365 82.3401 100.131 82.3695 98.2637V98.2539Z" fill="#2E465B"/>
<path d="M63.9541 136.235C64.258 135.561 64.209 134.876 63.9737 134.602C63.7481 134.319 63.7579 132.989 63.8364 131.063C63.8756 130.182 62.4047 129.332 61.0907 130.339C60.6593 130.662 60.3161 130.847 60.0415 130.72C59.8062 130.613 59.7081 130.094 59.3747 130.28C59.0805 130.437 58.7667 131.043 58.5314 131.473C58.1294 132.216 57.7273 132.96 57.3253 133.703C57.237 133.869 57.1488 134.035 57.0703 134.211L63.5422 136.852C63.6991 136.695 63.8462 136.48 63.9639 136.235H63.9541Z" fill="#0A3C5F"/>
<path fill-rule="evenodd" clip-rule="evenodd" d="M103.72 68.6302C103.497 57.127 107.955 49.1617 113.385 43.3377C115.503 41.0619 118.077 38.393 117.523 35.2483C117.057 32.569 114.502 30.976 112.171 29.8587C108.13 27.9347 103.953 26.4347 99.6887 25.2244C97.134 24.4899 90.5676 20.6314 87.906 21.3762C80.747 23.3727 81.8252 37.4206 79.8533 43.8032C78.2603 48.9341 74.5011 65.0096 74.5497 65.3923L102.865 74.9093C104.429 73.7611 103.778 71.2577 103.73 68.6508L103.72 68.6302Z" fill="#E0F7FA"/>
<path d="M109.071 21.1773C107.865 17.9113 104.707 16.4836 102.971 16.8063C102.344 22.2628 102.236 22.5855 99.5296 25.0204C98.7255 27.9344 106.639 30.7507 107.884 29.6164C107.894 29.1665 109.698 22.8691 109.071 21.1773Z" fill="#F4A086"/>
<path fill-rule="evenodd" clip-rule="evenodd" d="M113.17 14.039C113.621 14.5768 114.052 15.2124 114.013 15.9067C113.984 16.4446 113.68 16.9139 113.376 17.3638C112.993 17.9407 112.611 18.5274 112.228 19.1044C111.856 18.3025 111.816 17.3931 111.718 16.513C111.62 15.6329 111.444 14.7137 110.865 14.0488C110.502 13.6381 109.973 13.2665 109.973 12.7189C109.973 11.9366 110.846 11.7703 111.336 12.2006C111.983 12.7678 112.611 13.374 113.16 14.039H113.17Z" fill="#222B56"/>
<path d="M104.57 13.2971C106.639 10.8427 110.728 11.3609 112.16 14.4803C113.464 17.3259 111.865 23.2616 110.659 24.4839C108.561 26.6157 104.256 24.0439 103.678 22.4109C102.834 20.0151 102.824 15.3702 104.57 13.3069V13.2971Z" fill="#F7B690"/>
<path fill-rule="evenodd" clip-rule="evenodd" d="M105.619 14.1291C105.737 14.5887 104.55 20.6026 104.383 20.5244C103.795 20.2701 103.07 18.5589 101.952 18.598C101.589 18.6078 101.099 18.8327 101.099 18.1188C101.099 13.5815 100.912 13.8064 101.736 13.4055C103.54 12.5254 105.423 13.2979 105.639 14.1193L105.619 14.1291Z" fill="#454647"/>
<path d="M100.971 17.8905C100.883 18.6239 101.099 19.3769 101.559 19.9636C102.864 21.6162 104.236 19.4356 103.952 18.0568C103.619 16.414 101.197 15.9055 100.971 17.8905Z" fill="#F7B690"/>
<path fill-rule="evenodd" clip-rule="evenodd" d="M106.255 9.34665C106.503 9.03392 106.86 8.72093 107.165 8.80878C107.476 8.89998 108.652 13.1145 108.804 13.2242C108.957 13.3339 109.519 11.7343 109.788 11.6619C110.018 11.6022 110.177 11.814 110.302 11.9969C110.867 12.8071 111.734 13.1996 112.596 13.568C112.487 13.918 112.125 14.4579 111.858 14.674C111.592 14.8902 111.294 15.0359 110.992 15.1574C109.68 15.701 108.264 15.8743 107.184 15.2761C106.541 14.9193 106.024 14.3419 105.585 13.6939C103.903 11.2164 105.868 9.81948 106.253 9.33458L106.255 9.34665Z" fill="#454647"/>
<path d="M92.0578 39.543L82.095 40.4719C82.095 44.8821 82.4284 49.2826 83.056 53.595L91.3714 52.7638C91.4499 48.3829 91.6852 44.0216 92.048 39.5527L92.0578 39.543Z" fill="#F7B690"/>
<path fill-rule="evenodd" clip-rule="evenodd" d="M92.8722 32.9633C93.284 29.1789 96.2356 23.605 92.0191 21.8058C88.1261 20.1434 84.5175 22.7445 83.7233 26.4213C82.6152 31.5747 82.1053 36.9236 82.1053 42.2823L92.9702 41.8325C93.1958 39.0945 92.5584 35.8284 92.8722 32.973V32.9633Z" fill="#E0F7FA"/>
<path d="M92.7775 31.178L91.488 44.1163L94.2516 34.7472L92.7775 31.178Z" fill="#D1EEF2"/>
<path d="M91.4203 50.8477L83.0558 53.5857C83.5069 54.5244 91.6752 68.2048 95.7839 73.0551C96.4703 73.8667 97.5882 74.7272 98.4707 74.1307C99.1964 73.6418 99.2356 72.5075 98.8924 71.7056C95.8231 64.5769 93.3913 57.5558 91.4203 50.8477Z" fill="#F7B690"/>
<path fill-rule="evenodd" clip-rule="evenodd" d="M101.256 14.2673C100.854 14.3064 100.491 14.5802 100.344 14.9518C100.256 13.9935 100.687 13.0058 101.452 12.4289C100.972 12.4973 100.599 11.9106 100.707 11.4314C100.815 10.9523 101.217 10.61 101.629 10.346C102.972 9.47569 104.629 9.09433 106.218 9.28012C106.247 9.07477 106.277 8.86942 106.306 8.66406C107.277 8.87919 108.169 9.38769 108.846 10.1113C108.875 9.93529 108.905 9.7495 108.934 9.57348C109.63 9.99397 110.336 10.4242 111.032 10.8447C110.915 10.7371 110.993 10.4927 111.16 10.4829C112.65 11.6563 113.641 13.4458 113.817 15.3331C112.974 14.3553 111.905 13.573 110.709 13.084C108.924 12.3506 106.894 12.2431 105.208 11.3141C105.443 12.2626 104.482 13.2992 103.511 13.1329C103.678 12.9667 103.845 12.8005 104.011 12.6244L101.256 14.2673Z" fill="#454647"/>
<path d="M103.95 19.7027C109.41 18.0203 109.725 15.8471 109.2 14.9708L110.774 7.61013C106.574 4.66584 101.849 7.6129 99.7495 10.239C97.6495 15.2863 99.5745 17.2492 100.799 17.5997C103.32 14.6554 103.95 17.7749 103.95 19.7027Z" fill="#454647"/>
<path d="M114.449 16.0216C116.129 9.71244 112.699 7.78463 110.774 7.60938C108.254 8.4506 109.724 11.8155 110.774 13.3928C112.454 15.0752 112.524 17.5989 112.349 18.6504C113.189 18.2298 114.099 16.7226 114.449 16.0216Z" fill="#454647"/>
<path d="M100.785 69.7467C101.511 69.9129 102.06 70.4605 102.58 70.9984L104.815 73.2963C105.119 73.6093 105.443 74.0298 105.257 74.4209C105.09 74.7729 104.59 74.8414 104.247 74.6556C103.903 74.4698 103.688 74.1275 103.492 73.7951C103.413 74.4209 102.805 74.9294 102.178 74.9001C101.883 74.5871 101.599 74.2644 101.305 73.9515C100.746 74.636 99.7065 74.6165 98.824 74.5382C97.3825 74.4013 95.6077 73.9417 96.6373 72.2891C97.3923 71.0766 99.226 69.3947 100.775 69.7467H100.785Z" fill="#F7B690"/>
<path d="M57.9922 57.1367V57.1661C58.1001 57.1465 58.208 57.1367 58.3256 57.1367C59.4533 57.1367 60.3947 57.9875 60.5026 59.112L64.2092 97.9921C64.2876 98.794 64.9446 99.3905 65.7487 99.3905H89.2143C90.4204 99.3905 91.401 100.368 91.401 101.571C91.401 102.774 90.4204 103.752 89.2143 103.752H65.7487C63.9542 103.752 62.3363 102.95 61.2478 101.679C59.9534 101.776 54.9622 102.197 54.9622 102.197L49.8435 100.574L45.1857 57.1367H57.9922Z" fill="#67869D"/>
<path d="M52.6185 99.3983C51.8145 99.3983 51.1477 98.792 51.079 97.9999L47.3724 59.1198C47.2645 57.9953 46.3232 57.1445 45.1955 57.1445C43.9011 57.1445 42.8911 58.2495 43.0186 59.5305L46.7252 98.4106C47.0096 101.452 49.5689 103.769 52.6283 103.769H76.0939C77.3 103.769 78.2806 102.791 78.2806 101.589C78.2806 100.386 77.3 99.4081 76.0939 99.4081H52.6185V99.3983Z" fill="#41596C"/>
<path d="M69.4651 103.762H65.9056V136.755H69.4651V103.762Z" fill="#67869D"/>
<path d="M54.9916 136.757C54.9916 134.801 56.59 133.207 58.5512 133.207H76.8C78.7612 133.207 80.3595 134.801 80.3595 136.757H54.9916Z" fill="#3B5E7D"/>
<path d="M98.6868 71.5683C96.9708 70.7567 87.106 69.3877 85.3606 68.6249C82.9581 67.5786 81.1342 64.7624 79.9575 62.435C79.3005 61.1442 78.7808 59.7948 78.2709 58.4453L70.8969 62.3275C71.8971 64.0289 73.0051 65.6718 74.2309 67.2266C76.1038 69.6126 78.2807 71.8323 80.9577 73.26C83.7524 74.7464 95.3038 74.9322 98.4318 74.4335C100.952 73.9152 100.422 72.38 98.6966 71.5683H98.6868Z" fill="#F4C0A2"/>
<path d="M73.0639 50.4652C71.1224 49.4189 67.1216 49.634 66.9353 52.4307C66.8176 54.0735 67.7688 55.8728 68.3963 57.3494C69.0926 59.002 69.8966 60.6057 70.7988 62.1605C70.8282 62.2192 70.8674 62.2681 70.8968 62.3267L79.0161 58.9531C77.2315 56.7138 75.5546 51.8146 73.0639 50.4652Z" fill="#F0EFED"/>
<path d="M105.776 70.9521C106.424 71.5681 106.904 72.3895 106.924 73.2794C106.943 74.1693 106.218 75.9392 105.561 75.3525C105.012 74.8635 104.874 74.0421 104.149 74.0617C103.413 74.0812 102.756 74.492 102.07 74.756C100.06 75.5578 93.9506 74.4724 96.5491 71.2845C98.5397 68.8497 103.609 68.8888 105.776 70.9521Z" fill="#F8D0B9"/>
<path d="M119.269 131.197C119.681 131.823 120.24 132.517 120.995 132.498C122.29 132.468 122.388 130.63 122.064 129.388C121.711 128.048 121.368 126.709 121.015 125.379L116.955 126.562C117.396 128.244 118.495 130.024 119.279 131.197H119.269Z" fill="#F8D0B9"/>
<path fill-rule="evenodd" clip-rule="evenodd" d="M109.022 92.473C105.747 88.8744 85.3116 84.3957 75.692 81.4621C68.514 79.2717 61.1204 78.0396 60.0319 87.7107C59.5612 91.8862 61.6891 96.1693 65.2683 98.3597C69.171 100.746 74.074 100.531 78.6435 100.227C87.361 99.6505 92.6954 99.2985 101.413 98.7215C102.246 110.094 111.935 114.162 116.279 126.757L122.8 125.427C118.848 119.501 110.64 94.546 109.022 92.473Z" fill="#3BAFBF"/>
<path d="M74.5839 125.32C74.2505 125.994 73.9269 126.816 74.3191 127.461C74.9957 128.566 76.6431 127.725 77.5551 126.825C78.5455 125.857 79.5261 124.879 80.5165 123.911L76.5255 121.535C75.8685 122.787 75.2213 124.048 74.5839 125.32Z" fill="#F8D0B9"/>
<path fill-rule="evenodd" clip-rule="evenodd" d="M58.4041 98.3519C62.3069 100.738 67.2098 100.523 71.7794 100.22C80.8008 99.6231 89.8222 99.0266 98.8437 98.4301C100.285 98.3324 101.903 98.1563 102.795 97.022C103.845 95.7019 103.335 93.6484 102.138 92.4651C100.942 91.2819 99.2653 90.7441 97.6473 90.2552C88.0375 87.3215 78.418 84.3879 68.8082 81.4543C61.6302 79.2639 54.2366 78.0318 53.1481 87.7029C52.6775 91.8784 54.8053 96.1615 58.3845 98.3519H58.4041Z" fill="#46C3D4"/>
<path fill-rule="evenodd" clip-rule="evenodd" d="M102.285 94.9493C100.294 88.8083 87.8992 100.924 85.7321 104.19C82.0157 109.784 78.5934 115.582 75.4752 121.547L80.3193 125.498C83.4964 119.122 89.8212 113.734 94.9987 108.639C96.7049 106.967 98.4406 105.246 99.48 103.066C100.519 100.895 102.647 96.0445 102.294 94.9493H102.285Z" fill="#46C3D4"/>
<path d="M58.5904 57.7106C59.0807 61.3678 60.4928 64.9272 60.4339 68.6138C60.3751 72.3101 58.7571 75.9576 56.0507 78.4903C54.3837 80.0549 52.0989 81.8248 52.6971 84.025C53.2364 86.0003 55.7173 86.587 57.7569 86.8217C62.2088 87.3302 67.2981 87.6431 70.5733 84.5824C72.5835 82.7147 73.4464 79.9473 74.0838 77.2875C75.2114 72.5644 75.8783 67.7435 76.0646 62.8933C76.2215 58.7666 75.9469 54.3662 73.5641 50.9828C71.191 47.6092 68.5336 45.3796 64.6505 46.5628C60.2378 50.8752 58.1001 54.0631 58.5806 57.7008L58.5904 57.7106Z" fill="white"/>
<path fill-rule="evenodd" clip-rule="evenodd" d="M117.426 128.381C117.681 128.821 118.848 129.026 119.328 129.046C119.711 129.065 121.446 128.273 121.829 128.4C122.103 128.498 123.113 132.116 124.359 132.879C125.614 133.652 127.006 134.072 128.34 134.639C128.801 134.835 129.271 135.06 129.654 135.422C130.026 135.774 130.291 136.292 130.213 136.732C130.213 136.771 130.183 136.81 130.174 136.849H121.976C121.74 136.566 121.525 136.272 121.319 135.969C120.574 134.903 119.819 133.828 119.073 132.762C118.838 133.935 118.632 135.304 118.406 136.849H117.495C117.2 135.598 116.396 129.672 117.455 128.371L117.426 128.381Z" fill="#BCD5EB"/>
<path fill-rule="evenodd" clip-rule="evenodd" d="M71.4852 129.377C71.7598 128.497 72.0539 127.597 72.5933 126.844C73.1228 126.111 73.7504 125.387 74.6035 125.094C74.6035 125.573 74.8094 126.297 75.2507 126.492C75.5939 126.649 77.6237 126.59 77.9081 126.844C78.0944 127.01 77.2903 130.091 77.8002 131.421C77.8002 131.421 79.6535 132.819 80.6047 133.484C80.9969 133.758 81.3794 134.061 81.6245 134.462C81.8697 134.863 81.9579 135.4 81.7226 135.821C81.703 135.86 81.6735 135.889 81.6441 135.919L74.5937 134.628L73.6327 134.247C73.5542 133.914 73.515 133.572 73.4758 133.239C73.3385 132.037 73.1914 130.824 73.0541 129.621C72.2599 130.746 71.6323 131.988 71.2008 133.288L70.3477 132.956C70.7203 131.763 71.1028 130.57 71.4754 129.377H71.4852Z" fill="#BCD5EB"/>
<path d="M93.9898 71.1283C92.2737 70.3167 82.409 69.3779 80.6635 68.6249C78.2611 67.5786 76.4372 64.7624 75.2605 62.435C74.6035 61.1442 74.0838 59.7948 73.5739 58.4453L66.1998 62.3275C67.2 64.0289 68.3081 65.6718 69.5338 67.2266C71.4068 69.6126 73.5837 71.8323 76.2607 73.26C79.0554 74.7464 90.6067 74.4922 93.7348 74.0032C96.2549 73.4849 95.7254 71.9497 93.9996 71.1381L93.9898 71.1283Z" fill="#F8D0B9"/>
<path d="M72.2403 55.1981C71.3675 53.3108 70.2006 51.4528 68.3669 50.4652C66.4254 49.4189 62.4245 49.634 62.2382 52.4307C62.1206 54.0735 63.0717 55.8728 63.6993 57.3494C64.3955 59.002 65.1996 60.6057 66.1018 62.1605C66.1312 62.2192 66.1704 62.2681 66.1998 62.3267L74.3191 58.9531C73.8975 57.8579 72.7306 56.2639 72.2403 55.1981Z" fill="white"/>
<path d="M101.05 67.7254C101.864 68.0872 102.599 68.6935 102.923 69.5247C103.247 70.3559 103.168 72.2725 102.344 71.9302C101.668 71.6564 101.256 70.923 100.57 71.1968C99.8831 71.4706 99.4026 72.0671 98.8535 72.5561C97.2257 73.9838 91.1167 75.0301 92.4797 71.1577C93.5191 68.1948 98.3044 66.5128 101.05 67.7254Z" fill="#F7B690"/>
<path d="M65.4153 38.1538C65.7585 37.5084 69.524 39.4446 69.7495 39.9042C69.975 40.3638 70.2104 45.615 71.0145 48.8909C71.191 49.5949 64.1601 47.4338 64.6602 46.5733C65.4643 45.1847 66.2978 39.8945 65.4153 38.1441V38.1538Z" fill="#F4C0A2"/>
<path d="M76.2704 33.4185C74.9663 28.0402 67.5824 29.1745 65.837 29.7124C64.0817 30.2502 64.0425 32.7242 63.866 34.543C63.7581 35.6676 64.17 36.7824 64.8368 37.6722C65.484 38.5327 68.2884 39.8235 68.4453 39.8529C69.4848 41.6424 71.1812 43.6959 72.907 43.6666C73.6817 43.6568 74.3877 43.1581 74.8388 42.5322C75.2899 41.9064 75.5448 41.1534 75.79 40.42C76.545 38.1416 76.8294 35.7458 76.2606 33.4087L76.2704 33.4185Z" fill="#F8D0B9"/>
<path fill-rule="evenodd" clip-rule="evenodd" d="M63.4934 36.5494C62.8462 35.7769 62.3461 34.8577 62.2186 33.8603C62.0715 32.677 62.4637 31.4743 63.1305 30.4866C64.3171 28.7264 67.3863 26.448 69.8672 26.3991C72.5148 26.3502 77.0647 28.9807 76.6333 32.2468C76.5058 33.2246 75.9665 33.2344 75.0251 33.5473C73.7896 33.958 72.1324 34.2416 71.1028 35.0435C69.877 36.0018 70.4261 38.3193 67.906 39.0723C67.0921 39.3168 66.2586 40.7445 65.7193 41.8592C65.0819 41.1356 64.1013 37.3024 63.4738 36.5494H63.4934Z" fill="#2D2416"/>
<path fill-rule="evenodd" clip-rule="evenodd" d="M59.7671 43.2875C59.5318 44.2947 59.8848 45.3508 59.826 46.3775C59.6887 48.7831 57.4431 50.5139 56.6881 52.8021C56.3939 53.6822 56.3547 54.6796 56.7567 55.5108C57.1685 56.342 58.1099 56.9483 59.0219 56.7821C60.0319 56.5963 60.6791 55.6184 61.0615 54.6699C61.4439 53.7213 61.6891 52.675 62.3951 51.9318C63.4836 50.7877 65.3761 50.6802 66.4253 49.5067C67.4353 48.3724 68.1904 45.2139 68.1904 42.8768C68.1904 38.3786 66.7489 34.2813 64.5818 34.9267C63.2874 35.3081 62.9148 37.6549 62.5716 38.6817C61.9931 40.4321 60.1692 41.498 59.7573 43.2777L59.7671 43.2875Z" fill="#2D2416"/>
<path d="M66.8273 36.9585C66.6999 37.0758 66.6312 37.2519 66.5822 37.4279C66.4547 37.9755 66.5528 38.572 66.8568 39.0511C67.1607 39.5205 67.6608 39.8725 68.21 39.9801C68.4257 40.029 68.6709 40.029 68.8572 39.9117C69.5142 39.5107 69.1808 38.1222 68.8572 37.5843C68.5336 37.0269 67.3667 36.4304 66.8077 36.9487L66.8273 36.9585Z" fill="#F8D0B9"/>
<path d="M107.149 71.2965L92.764 72.4406C92.2345 72.4798 91.8325 72.9198 91.8325 73.4478C91.8325 74.0052 92.2835 74.4648 92.8523 74.4648H107.238C107.796 74.4648 108.257 74.015 108.257 73.4478V72.3037C108.257 71.7072 107.747 71.2476 107.159 71.2965H107.149Z" fill="#8E9AA3"/>
<path d="M108.424 77.7651L102.964 136.793L104.595 136.943L110.055 77.9151L108.424 77.7651Z" fill="#D5E7F2"/>
<path d="M174.484 77.7755L172.854 77.9258L178.324 136.953L179.954 136.802L174.484 77.7755Z" fill="#D5E7F2"/>
<path d="M188.303 77.8483H94.6075C93.6759 77.8483 92.9111 77.0953 92.9111 76.1566C92.9111 75.2178 93.6661 74.4648 94.6075 74.4648H188.303C189.234 74.4648 189.999 75.2178 189.999 76.1566C189.999 77.0953 189.244 77.8483 188.303 77.8483Z" fill="#D5E7F2"/>
</g>
<defs>
<clipPath id="clip0_3553_493424">
<rect width="147" height="131.442" fill="white" transform="translate(42.999 5.50781)"/>
</clipPath>
</defs>
</svg>
