<svg width="40" height="40" viewBox="0 0 40 40" fill="none" xmlns="http://www.w3.org/2000/svg">
<g clip-path="url(#clip0_3405_46951)">
<path d="M34.1396 5.84689C28.8373 0.556867 21.3954 -1.11367 14.6047 0.742482C13.7675 0.928097 13.6745 2.04179 14.4187 2.50582C19.0698 5.29005 23.3489 8.72392 27.3489 12.6218C31.3489 16.6126 34.6977 20.9745 37.4884 25.5221C37.9536 26.2645 39.0698 26.0789 39.2559 25.3364C41.2094 18.6543 39.4419 11.1369 34.1396 5.84689Z" fill="#00A9B7"/>
<path d="M23.4419 16.6125C18.6977 11.8793 13.3024 7.98143 7.62795 5.1044C7.25586 4.91878 6.79074 4.91878 6.51167 5.19721C5.30237 6.3109 2.79074 9.00231 1.48842 12.2506C1.30237 12.7146 1.58144 13.1786 1.95353 13.4571C7.16284 15.9629 12 19.3967 16.2791 23.6659C20.5582 27.935 24 32.761 26.5117 37.9582C26.6977 38.4223 27.2559 38.6079 27.721 38.4223C30.6977 37.2158 33.4884 34.8956 34.7907 33.4107C35.0698 33.1322 35.1628 32.6682 34.9768 32.297C32 26.6357 28.1861 21.3457 23.4419 16.6125Z" fill="#00A9B7"/>
<path d="M20.6512 38.5151C18.5116 34.6172 15.814 30.9049 12.4651 27.6566C9.11628 24.3156 5.48837 21.6241 1.5814 19.4896H1.48837C0.837209 19.1183 0 19.5824 0 20.4176C0 20.6033 0 20.7889 0 20.9745C0.0930233 23.2019 0.651163 25.5221 1.48837 27.5638C1.86047 28.3991 2.32558 29.5128 2.69767 30.1624C2.88372 30.4409 5.30233 35.2668 0.651163 38.2367C-0.186046 38.7935 0.186047 40 1.11628 40H10.4186C12.2791 40 13.3023 40 14.3256 40C16 40.0928 17.7674 40.0928 19.5349 40C20.186 40 20.5581 39.3504 20.4651 38.7935C20.6512 38.7007 20.6512 38.6079 20.6512 38.5151Z" fill="#00A9B7"/>
</g>
<defs>
<clipPath id="clip0_3405_46951">
<rect width="40" height="40" fill="white"/>
</clipPath>
</defs>
</svg>
