<svg width="150" height="20" viewBox="0 0 150 20" fill="none" xmlns="http://www.w3.org/2000/svg">
<g clip-path="url(#clip0_3405_47052)">
<path d="M34.087 11.2609L28.5652 1.43478H24V19.6957H27.6522V6.82609L33.0435 16.4348H35.1304L40.4783 6.82609V19.6957H44.1304V1.43478H39.6522L34.087 11.2609Z" fill="#00A9B7"/>
<path d="M73.3479 7.78261C72.2609 6.6087 70.7392 5.86957 68.9566 5.86957C65.2175 5.86957 62.3479 8.91304 62.3479 12.9565C62.3479 17 65.174 20 68.9566 20C70.7392 20 72.2609 19.3043 73.3479 18.087V19.6957H76.7827V0.652176H73.3479V7.78261ZM69.6088 16.6957C67.4783 16.6957 65.9131 15.087 65.9131 12.9565C65.9131 10.8261 67.5218 9.21739 69.6088 9.21739C71.7392 9.21739 73.3479 10.8261 73.3479 12.9565C73.3479 15.087 71.7392 16.6957 69.6088 16.6957Z" fill="#00A9B7"/>
<path d="M83.3044 6.21739H79.8696V19.7391H83.3044V6.21739Z" fill="#00A9B7"/>
<path d="M81.5653 0C80.3479 0 79.3914 0.913043 79.3914 2.13043C79.3914 3.34783 80.3479 4.26087 81.5653 4.26087C82.7827 4.26087 83.7392 3.34783 83.7392 2.13043C83.7392 0.913043 82.7827 0 81.5653 0Z" fill="#00A9B7"/>
<path d="M96.5217 7.78261C95.4348 6.6087 93.913 5.86957 92.1304 5.86957C88.3913 5.86957 85.5217 8.91305 85.5217 12.9565C85.5217 17 88.3913 20 92.1304 20C93.913 20 95.4348 19.3043 96.5217 18.087V19.6957H99.9565V6.21739H96.5217V7.78261ZM92.7826 16.6957C90.6522 16.6957 89.0869 15.087 89.0869 12.9565C89.0869 10.8261 90.6956 9.21739 92.7826 9.21739C94.913 9.21739 96.5217 10.8261 96.5217 12.9565C96.5217 15.087 94.9565 16.6957 92.7826 16.6957Z" fill="#00A9B7"/>
<path d="M114.739 10C115.913 9.30435 116.826 7.78261 116.826 6.08696C116.826 3.39131 114.739 1.43478 112 1.43478H103.174V19.6957H112.696C115.609 19.6957 117.826 17.6087 117.826 14.7391C117.783 12.5652 116.565 10.6087 114.739 10ZM106.696 4.69565H111.043C112.174 4.69565 113.043 5.56522 113.043 6.69565C113.043 7.82609 112.13 8.69565 111.043 8.69565H106.696V4.69565ZM111.783 16.4348H106.696V11.8261H111.783C113.087 11.8261 114.043 12.8261 114.043 14.087C114.087 15.3913 113.087 16.4348 111.783 16.4348Z" fill="#00A9B7"/>
<path d="M145.391 15.5217C144.783 16.3913 143.609 17.0435 142.217 17.0435C140.348 17.0435 138.957 15.913 138.522 14.1739H149.217C149.304 13.8261 149.304 13.3913 149.304 13.0435C149.304 8.95652 146.174 5.91304 142.044 5.91304C137.913 5.91304 134.783 8.95652 134.783 13C134.783 17.0435 137.913 20 142.131 20C144.957 20 147.304 18.6522 148.565 16.6087L145.391 15.5217ZM142.044 8.86956C143.826 8.86956 145.174 10 145.609 11.6087H138.478C139 9.95652 140.304 8.86956 142.044 8.86956Z" fill="#00A9B7"/>
<path d="M129.609 15.5217C129 16.3913 127.826 17.0435 126.435 17.0435C124.565 17.0435 123.174 15.913 122.739 14.1739H133.478C133.565 13.8261 133.565 13.3913 133.565 13.0435C133.565 8.95652 130.435 5.91304 126.304 5.91304C122.174 5.91304 119.043 8.95652 119.043 13C119.043 17.0435 122.174 20 126.348 20C129.174 20 131.522 18.6522 132.783 16.6087L129.609 15.5217ZM126.304 8.86956C128.087 8.86956 129.435 10 129.87 11.6087H122.739C123.217 9.95652 124.565 8.86956 126.304 8.86956Z" fill="#00A9B7"/>
<path d="M57.0869 15.5217C56.4782 16.3913 55.3043 17.0435 53.913 17.0435C52.0435 17.0435 50.6522 15.913 50.2174 14.1739H60.9565C61.0435 13.8261 61.0435 13.3913 61.0435 13.0435C61.0435 8.95652 57.913 5.91304 53.7826 5.91304C49.6522 5.91304 46.5217 8.95652 46.5217 13C46.5217 17.0435 49.6522 20 53.8261 20C56.6522 20 59 18.6522 60.2609 16.6087L57.0869 15.5217ZM53.7826 8.86956C55.5652 8.86956 56.913 10 57.3478 11.6087H50.2174C50.6956 9.95652 52.0435 8.86956 53.7826 8.86956Z" fill="#00A9B7"/>
</g>
<g clip-path="url(#clip1_3405_47052)">
<path d="M15.9603 3.73343C13.4815 1.26034 10.0024 0.479368 6.82776 1.34712C6.43637 1.43389 6.39288 1.95454 6.74079 2.17148C8.91521 3.4731 10.9157 5.07844 12.7857 6.90071C14.6557 8.76638 16.2213 10.8056 17.5259 12.9316C17.7433 13.2787 18.2652 13.1919 18.3522 12.8448C19.2654 9.7209 18.4392 6.20651 15.9603 3.73343Z" fill="#00A9B7"/>
<path d="M10.9592 8.76636C8.74125 6.5536 6.21892 4.73132 3.56613 3.38631C3.39218 3.29954 3.17473 3.29954 3.04427 3.4297C2.47892 3.95035 1.30473 5.20859 0.695898 6.72715C0.608921 6.94409 0.739386 7.16102 0.913339 7.29119C3.34869 8.46265 5.61008 10.068 7.61055 12.0638C9.61101 14.0596 11.2201 16.3158 12.3943 18.7455C12.4812 18.9624 12.7422 19.0492 12.9596 18.9624C14.3512 18.3984 15.6559 17.3137 16.2647 16.6195C16.3952 16.4893 16.4387 16.2724 16.3517 16.0988C14.9601 13.4522 13.1771 10.9791 10.9592 8.76636Z" fill="#00A9B7"/>
<path d="M9.65442 19.0058C8.65419 17.1835 7.39302 15.448 5.82744 13.9295C4.26186 12.3675 2.56581 11.1093 0.739302 10.1114H0.695814C0.391395 9.93782 0 10.1548 0 10.5452C0 10.632 0 10.7188 0 10.8056C0.0434884 11.8469 0.304419 12.9316 0.695814 13.8861C0.869767 14.2766 1.08721 14.7972 1.26116 15.1009C1.34814 15.2311 2.47884 17.4872 0.304419 18.8756C-0.0869767 19.136 0.0869768 19.7 0.52186 19.7H4.8707C5.74047 19.7 6.21884 19.7 6.69721 19.7C7.48 19.7434 8.30628 19.7434 9.13256 19.7C9.43698 19.7 9.61093 19.3963 9.56744 19.136C9.65442 19.0926 9.65442 19.0492 9.65442 19.0058Z" fill="#00A9B7"/>
</g>
<defs>
<clipPath id="clip0_3405_47052">
<rect width="125.304" height="20" fill="white" transform="translate(24)"/>
</clipPath>
<clipPath id="clip1_3405_47052">
<rect width="18.7" height="18.7" fill="white" transform="translate(0 1)"/>
</clipPath>
</defs>
</svg>
