<svg width="54" height="54" viewBox="0 0 54 54" fill="none" xmlns="http://www.w3.org/2000/svg">
<g clip-path="url(#clip0_3405_46972)">
<path d="M31.9836 0.441074C31.9205 0.441074 31.9205 0.441074 31.8574 0.441074C31.3527 0.378063 30.848 0.252042 30.3434 0.189032C30.2803 0.189032 30.2172 0.189032 30.1541 0.189032C29.0817 0.0630105 28.0723 0 26.9999 0C26.9368 0 26.8737 0 26.8107 0C26.6214 0 26.4952 0 26.306 0C25.9275 0 25.549 0 25.2336 0.0630105C25.0443 0.0630105 24.855 0.0630105 24.6658 0.126021C24.2873 0.126021 23.9719 0.189032 23.5934 0.252042C23.4041 0.252042 23.2779 0.315053 23.0887 0.315053C22.584 0.378063 22.0793 0.504084 21.5747 0.567095C21.3854 0.630105 21.2593 0.630105 21.07 0.693116C20.7546 0.756126 20.3761 0.882147 20.0607 0.945158C19.9345 0.945158 19.8714 1.00817 19.7452 1.00817C19.7452 1.00817 19.6821 1.00817 19.6821 1.07118C15.6448 2.14236 11.9859 4.2217 8.95785 6.93116C8.89476 6.93116 8.89476 6.99417 8.83168 6.99417C7.19149 8.50642 3.78495 12.161 2.08168 16.5718C2.0186 16.6978 2.0186 16.7608 2.0186 16.8868C0.756914 19.9743 0.0629883 23.3769 0.0629883 26.9685C0.0629883 31.6313 1.26159 35.979 3.28028 39.7596C3.40645 40.0747 3.5957 40.3897 3.72187 40.6418C3.91112 41.0198 7.19149 47.5099 0.946166 51.6056C-0.126264 52.2987 0.441493 53.937 1.70318 53.937H14.32C16.8434 53.937 18.2312 53.937 19.6191 53.937C21.7008 54.063 23.9088 54.063 26.1798 53.937C26.4952 53.937 26.8107 53.937 27.1892 53.937C42.077 53.937 54.1892 41.839 54.1892 26.9685C53.9999 13.7363 44.5373 2.77246 31.9836 0.441074Z" fill="#00A9B7"/>
</g>
<defs>
<clipPath id="clip0_3405_46972">
<rect width="54" height="54" fill="white"/>
</clipPath>
</defs>
</svg>
