<svg width="126" height="20" viewBox="0 0 126 20" fill="none" xmlns="http://www.w3.org/2000/svg">
<g clip-path="url(#clip0_3405_47163)">
<path d="M10.087 11.2609L4.56522 1.43478H0V19.6957H3.65217V6.82609L9.04348 16.4348H11.1304L16.4783 6.82609V19.6957H20.1304V1.43478H15.6522L10.087 11.2609Z" fill="#00A9B7"/>
<path d="M49.3479 7.78261C48.2609 6.6087 46.7392 5.86957 44.9566 5.86957C41.2175 5.86957 38.3479 8.91304 38.3479 12.9565C38.3479 17 41.174 20 44.9566 20C46.7392 20 48.2609 19.3043 49.3479 18.087V19.6957H52.7827V0.652176H49.3479V7.78261ZM45.6088 16.6957C43.4783 16.6957 41.9131 15.087 41.9131 12.9565C41.9131 10.8261 43.5218 9.21739 45.6088 9.21739C47.7392 9.21739 49.3479 10.8261 49.3479 12.9565C49.3479 15.087 47.7392 16.6957 45.6088 16.6957Z" fill="#00A9B7"/>
<path d="M59.3044 6.21739H55.8696V19.7391H59.3044V6.21739Z" fill="#00A9B7"/>
<path d="M57.5653 0C56.3479 0 55.3914 0.913043 55.3914 2.13043C55.3914 3.34783 56.3479 4.26087 57.5653 4.26087C58.7827 4.26087 59.7392 3.34783 59.7392 2.13043C59.7392 0.913043 58.7827 0 57.5653 0Z" fill="#00A9B7"/>
<path d="M72.5217 7.78261C71.4348 6.6087 69.913 5.86957 68.1304 5.86957C64.3913 5.86957 61.5217 8.91305 61.5217 12.9565C61.5217 17 64.3913 20 68.1304 20C69.913 20 71.4348 19.3043 72.5217 18.087V19.6957H75.9565V6.21739H72.5217V7.78261ZM68.7826 16.6957C66.6522 16.6957 65.0869 15.087 65.0869 12.9565C65.0869 10.8261 66.6956 9.21739 68.7826 9.21739C70.913 9.21739 72.5217 10.8261 72.5217 12.9565C72.5217 15.087 70.9565 16.6957 68.7826 16.6957Z" fill="#00A9B7"/>
<path d="M90.739 10C91.913 9.30435 92.826 7.78261 92.826 6.08696C92.826 3.39131 90.739 1.43478 87.9999 1.43478H79.1738V19.6957H88.6956C91.6086 19.6957 93.826 17.6087 93.826 14.7391C93.7825 12.5652 92.5651 10.6087 90.739 10ZM82.6956 4.69565H87.0434C88.1738 4.69565 89.0434 5.56522 89.0434 6.69565C89.0434 7.82609 88.1303 8.69565 87.0434 8.69565H82.6956V4.69565ZM87.7825 16.4348H82.6956V11.8261H87.7825C89.0869 11.8261 90.0434 12.8261 90.0434 14.087C90.0869 15.3913 89.0869 16.4348 87.7825 16.4348Z" fill="#00A9B7"/>
<path d="M121.391 15.5217C120.783 16.3913 119.609 17.0435 118.217 17.0435C116.348 17.0435 114.957 15.913 114.522 14.1739H125.217C125.304 13.8261 125.304 13.3913 125.304 13.0435C125.304 8.95652 122.174 5.91304 118.044 5.91304C113.913 5.91304 110.783 8.95652 110.783 13C110.783 17.0435 113.913 20 118.131 20C120.957 20 123.304 18.6522 124.565 16.6087L121.391 15.5217ZM118.044 8.86956C119.826 8.86956 121.174 10 121.609 11.6087H114.478C115 9.95652 116.304 8.86956 118.044 8.86956Z" fill="#00A9B7"/>
<path d="M105.609 15.5217C105 16.3913 103.826 17.0435 102.435 17.0435C100.565 17.0435 99.1739 15.913 98.7391 14.1739H109.478C109.565 13.8261 109.565 13.3913 109.565 13.0435C109.565 8.95652 106.435 5.91304 102.304 5.91304C98.1739 5.91304 95.0435 8.95652 95.0435 13C95.0435 17.0435 98.1739 20 102.348 20C105.174 20 107.522 18.6522 108.783 16.6087L105.609 15.5217ZM102.304 8.86956C104.087 8.86956 105.435 10 105.87 11.6087H98.7391C99.2174 9.95652 100.565 8.86956 102.304 8.86956Z" fill="#00A9B7"/>
<path d="M33.0869 15.5217C32.4782 16.3913 31.3043 17.0435 29.913 17.0435C28.0435 17.0435 26.6522 15.913 26.2174 14.1739H36.9565C37.0435 13.8261 37.0435 13.3913 37.0435 13.0435C37.0435 8.95652 33.913 5.91304 29.7826 5.91304C25.6522 5.91304 22.5217 8.95652 22.5217 13C22.5217 17.0435 25.6522 20 29.8261 20C32.6522 20 35 18.6522 36.2609 16.6087L33.0869 15.5217ZM29.7826 8.86956C31.5652 8.86956 32.913 10 33.3478 11.6087H26.2174C26.6956 9.95652 28.0435 8.86956 29.7826 8.86956Z" fill="#00A9B7"/>
</g>
<defs>
<clipPath id="clip0_3405_47163">
<rect width="125.304" height="20" fill="white"/>
</clipPath>
</defs>
</svg>
