<svg width="28" height="28" viewBox="0 0 28 28" fill="none" xmlns="http://www.w3.org/2000/svg">
<path d="M14 2C7.38324 2 2 7.38324 2 14C2 20.6168 7.38324 26 14 26C20.6168 26 26 20.6168 26 14C26 7.38324 20.6168 2 14 2ZM14 3.8C19.644 3.8 24.2 8.35603 24.2 14C24.2 19.644 19.644 24.2 14 24.2C8.35603 24.2 3.8 19.644 3.8 14C3.8 8.35603 8.35603 3.8 14 3.8Z" fill="#7D7F7F"/>
<path d="M15.7439 14.2049C16.6949 13.6147 17.3341 12.5635 17.3363 11.3563C17.3363 9.50334 15.8441 8 14.0022 8C12.1604 8 10.6682 9.50334 10.6682 11.3563C10.6682 12.5635 11.3073 13.6147 12.2584 14.2049C10.3586 14.9198 9 16.7461 9 18.9065C9 19.1381 9.18708 19.3252 9.41648 19.3252C9.64588 19.3252 9.83296 19.1381 9.83296 18.9065C9.83296 16.5902 11.6993 14.7127 14 14.7127C16.3007 14.7127 18.167 16.5902 18.167 18.9065C18.167 19.1381 18.3541 19.3252 18.5835 19.3252C18.8129 19.3252 19 19.1381 19 18.9065C19.0022 16.7461 17.6437 14.9198 15.7439 14.2049ZM11.5011 11.3563C11.5011 9.96659 12.6214 8.83964 14.0022 8.83964C15.3831 8.83964 16.5033 9.96659 16.5033 11.3563C16.5033 12.7461 15.3831 13.8731 14.0022 13.8731C12.6214 13.8731 11.5011 12.7461 11.5011 11.3563Z" fill="#7D7F7F" stroke="#7D7F7F"/>
</svg>
