<svg width="110" height="76" viewBox="0 0 110 76" fill="none" xmlns="http://www.w3.org/2000/svg">
<g clip-path="url(#clip0_2599_252509)">
<rect width="20" height="20" rx="2" fill="#E1E3E3"/>
<rect x="28" width="45" height="2" rx="1" fill="#E1E3E3"/>
<rect x="28" y="6" width="82" height="2" rx="1" fill="#E1E3E3"/>
<rect x="28" y="12" width="72" height="2" rx="1" fill="#E1E3E3"/>
<rect x="28" y="18" width="62" height="2" rx="1" fill="#E1E3E3"/>
</g>
<g clip-path="url(#clip1_2599_252509)">
<rect y="28" width="20" height="20" rx="2" fill="#E1E3E3"/>
<rect x="28" y="28" width="45" height="2" rx="1" fill="#E1E3E3"/>
<rect x="28" y="34" width="82" height="2" rx="1" fill="#E1E3E3"/>
<rect x="28" y="40" width="72" height="2" rx="1" fill="#E1E3E3"/>
<rect x="28" y="46" width="62" height="2" rx="1" fill="#E1E3E3"/>
</g>
<g clip-path="url(#clip2_2599_252509)">
<rect y="56" width="20" height="20" rx="2" fill="#E1E3E3"/>
<rect x="28" y="56" width="45" height="2" rx="1" fill="#E1E3E3"/>
<rect x="28" y="62" width="82" height="2" rx="1" fill="#E1E3E3"/>
<rect x="28" y="68" width="72" height="2" rx="1" fill="#E1E3E3"/>
<rect x="28" y="74" width="62" height="2" rx="1" fill="#E1E3E3"/>
</g>
<defs>
<clipPath id="clip0_2599_252509">
<rect width="110" height="20" fill="#E1E3E3"/>
</clipPath>
<clipPath id="clip1_2599_252509">
<rect width="110" height="20" fill="#E1E3E3" transform="translate(0 28)"/>
</clipPath>
<clipPath id="clip2_2599_252509">
<rect width="110" height="20" fill="#E1E3E3" transform="translate(0 56)"/>
</clipPath>
</defs>
</svg>
